<svg width="261" height="168" viewBox="0 0 261 168" fill="none" xmlns="http://www.w3.org/2000/svg">
<path d="M261 0H179V168L221.242 145.36L261 165.492V0Z" fill="#FF2E6D"/>
<path d="M207.077 76C206.666 76 206.46 75.7943 206.46 75.383V69.157H194.569C194.12 69.157 193.896 68.9327 193.896 68.4839V67.6426C193.896 67.4556 193.914 67.2687 193.952 67.0817C193.989 66.8947 194.027 66.7451 194.064 66.633L202.87 39.7098C202.982 39.4106 203.188 39.261 203.487 39.261H208.087C208.535 39.261 208.685 39.5041 208.535 39.9902L201.019 63.9406H206.46L207.357 52.2739C207.395 51.8626 207.6 51.6569 207.974 51.6569H211.564C211.975 51.6569 212.181 51.8626 212.181 52.2739V63.9406H214.032C214.443 63.9406 214.649 64.1463 214.649 64.5576V68.4839C214.649 68.9327 214.443 69.157 214.032 69.157H212.181V75.383C212.181 75.7943 211.975 76 211.564 76H207.077ZM220.681 76.3365C219.559 76.3365 218.643 76.0561 217.932 75.4952C217.259 74.8969 216.923 74.0368 216.923 72.915V72.0737C216.923 70.9519 217.259 70.1105 217.932 69.5496C218.643 68.9514 219.559 68.6522 220.681 68.6522C221.915 68.6522 222.849 68.9514 223.485 69.5496C224.121 70.1105 224.439 70.9519 224.439 72.0737V72.915C224.439 74.0368 224.121 74.8969 223.485 75.4952C222.849 76.0561 221.915 76.3365 220.681 76.3365ZM235.606 76.3365C233.55 76.3365 231.867 75.9252 230.558 75.1026C229.249 74.2799 228.314 73.1207 227.754 71.625C227.23 70.1292 227.043 68.3531 227.193 66.2964C227.23 66.0347 227.286 65.8664 227.361 65.7916C227.473 65.7168 227.623 65.6794 227.81 65.6794H231.96C232.372 65.6794 232.577 65.8851 232.577 66.2964C232.54 67.7922 232.727 68.9887 233.138 69.8862C233.587 70.7836 234.447 71.2323 235.718 71.2323C236.952 71.2323 237.85 70.7462 238.411 69.774C238.972 68.7644 239.252 67.2313 239.252 65.1746V63.1554C239.252 61.8466 239.121 60.7809 238.859 59.9583C238.598 59.0982 238.186 58.4625 237.625 58.0512C237.065 57.6399 236.317 57.4342 235.382 57.4342C234.335 57.4342 233.232 57.6212 232.072 57.9951C230.913 58.3316 229.81 58.7617 228.763 59.2852C228.464 59.4348 228.221 59.4721 228.034 59.3974C227.884 59.2852 227.81 59.0982 227.81 58.8365L229.044 39.878C229.081 39.4667 229.287 39.261 229.661 39.261H242.73C243.178 39.261 243.403 39.4667 243.403 39.878V43.8043C243.403 44.2157 243.178 44.4213 242.73 44.4213H233.923L233.306 53.5079C234.129 53.2088 234.896 52.9844 235.606 52.8348C236.317 52.6853 237.083 52.6105 237.906 52.6105C240.374 52.6105 242.187 53.5453 243.347 55.415C244.506 57.2472 245.085 60.2013 245.085 64.2772C245.085 68.2409 244.319 71.251 242.786 73.3077C241.29 75.3269 238.897 76.3365 235.606 76.3365Z" fill="white"/>
<path d="M1.24486 126C0.92438 126 0.76414 125.8 0.76414 125.399V87.2419C0.76414 86.8413 0.92438 86.641 1.24486 86.641H8.93638C12.6219 86.641 15.3059 87.5424 16.9884 89.3451C18.671 91.1478 19.5122 93.952 19.5122 97.7577C19.5122 100.722 19.0916 103.086 18.2503 104.848C17.4491 106.571 16.2874 107.773 14.7651 108.454L14.705 108.514L20.9544 125.219C21.0746 125.74 20.9143 126 20.4737 126H15.5463C15.2659 126 15.0656 125.86 14.9454 125.579L9.4171 109.656H6.35251V125.399C6.35251 125.8 6.17224 126 5.8117 126H1.24486ZM6.35251 104.788H9.05656C10.8192 104.788 12.0811 104.247 12.8422 103.166C13.6034 102.044 13.9839 100.362 13.9839 98.1182C13.9839 95.8749 13.5633 94.2725 12.7221 93.311C11.9209 92.3095 10.659 91.8088 8.93638 91.8088H6.35251V104.788ZM21.8191 126C21.4986 126 21.3584 125.78 21.3985 125.339L29.3905 87.1218C29.4305 86.8013 29.6308 86.641 29.9914 86.641H36.0004C36.3609 86.641 36.5612 86.8013 36.6013 87.1218L44.5932 125.279C44.6733 125.76 44.5331 126 44.1726 126H39.1851C38.9047 126 38.7244 125.86 38.6443 125.579L34.3779 100.762C34.0975 99.4002 33.8371 98.0381 33.5968 96.6761C33.3965 95.274 33.1962 93.8719 32.9959 92.4698H32.8757C32.7154 93.8719 32.5352 95.274 32.3349 96.6761C32.1346 98.0381 31.8942 99.4202 31.6138 100.822L27.2873 125.519C27.2472 125.84 27.067 126 26.7465 126H21.8191ZM27.9483 117.047L28.7896 112.179H37.0219L38.0434 117.047H27.9483ZM50.0408 126C49.6802 126 49.4999 125.8 49.4999 125.399V91.8088H43.2506C42.89 91.8088 42.7098 91.5885 42.7098 91.1478V87.2419C42.7098 86.8413 42.89 86.641 43.2506 86.641H61.3978C61.7182 86.641 61.8785 86.8413 61.8785 87.2419V91.1478C61.8785 91.5885 61.7182 91.8088 61.3978 91.8088H55.0883V125.399C55.0883 125.8 54.908 126 54.5475 126H50.0408ZM65.459 126C65.1385 126 64.9783 125.8 64.9783 125.399V87.2419C64.9783 86.8413 65.1385 86.641 65.459 86.641H70.0259C70.3864 86.641 70.5667 86.8413 70.5667 87.2419V125.399C70.5667 125.8 70.3864 126 70.0259 126H65.459ZM75.8903 126C75.5698 126 75.4095 125.8 75.4095 125.399V87.2419C75.4095 86.8413 75.5698 86.641 75.8903 86.641H82.1997C82.5202 86.641 82.7205 86.7813 82.8006 87.0617L88.5692 107.853C88.8497 108.894 89.1501 110.056 89.4706 111.338C89.7911 112.58 90.0915 113.842 90.3719 115.124C90.6524 116.366 90.8927 117.487 91.093 118.489H91.2132C91.1331 117.688 91.073 116.766 91.0329 115.725C90.9929 114.683 90.9528 113.621 90.9128 112.54C90.8727 111.458 90.8326 110.397 90.7926 109.355C90.7926 108.314 90.7926 107.392 90.7926 106.591V87.2419C90.7926 86.8413 90.9528 86.641 91.2733 86.641H95.5397C95.9002 86.641 96.0805 86.8413 96.0805 87.2419V125.399C96.0805 125.8 95.9002 126 95.5397 126H89.2903C89.0099 126 88.8296 125.88 88.7495 125.639L83.041 105.329C82.4801 103.366 81.9994 101.443 81.5988 99.5604C81.1982 97.6375 80.8176 95.8749 80.4571 94.2725H80.3369C80.417 95.4342 80.4771 96.7762 80.5172 98.2985C80.5572 99.7807 80.5973 101.283 80.6374 102.805C80.6774 104.328 80.6975 105.67 80.6975 106.831V125.399C80.6975 125.8 80.5372 126 80.2167 126H75.8903ZM109.395 126.361C106.39 126.361 104.127 125.359 102.604 123.356C101.122 121.353 100.381 118.329 100.381 114.282V98.8393C100.381 94.7532 101.262 91.6485 103.025 89.5254C104.828 87.3621 107.432 86.2805 110.837 86.2805C114.282 86.2805 116.886 87.4222 118.649 89.7056C120.451 91.949 121.192 95.0336 120.872 98.9595C120.872 99.32 120.712 99.5003 120.391 99.5003H115.764C115.404 99.5003 115.263 99.3 115.344 98.8994C115.584 96.5359 115.304 94.7131 114.502 93.4312C113.701 92.1092 112.499 91.4482 110.897 91.4482C109.214 91.4482 107.973 92.0692 107.171 93.311C106.37 94.5128 105.97 96.3957 105.97 98.9595V113.802C105.97 116.446 106.31 118.349 106.991 119.51C107.712 120.632 108.934 121.193 110.657 121.193C112.299 121.193 113.541 120.532 114.382 119.21C115.223 117.888 115.644 115.885 115.644 113.201V110.317H111.257C110.897 110.317 110.717 110.096 110.717 109.656V106.411C110.717 106.01 110.897 105.81 111.257 105.81H120.571C120.892 105.81 121.052 106.01 121.052 106.411V117.587C121.052 119.47 121.072 120.992 121.112 122.154C121.192 123.316 121.292 124.378 121.413 125.339C121.493 125.78 121.333 126 120.932 126H117.327C117.006 126 116.826 125.82 116.786 125.459C116.706 124.978 116.646 124.418 116.605 123.777C116.565 123.096 116.525 122.274 116.485 121.313H116.425C115.824 122.875 114.943 124.117 113.781 125.039C112.66 125.92 111.197 126.361 109.395 126.361Z" fill="#FF2E6D"/>
<path d="M1.12 73C1.01333 73 0.966667 72.9267 0.98 72.78L3.64 60.06C3.65333 59.9533 3.72 59.9 3.84 59.9H5.84C5.96 59.9 6.02667 59.9533 6.04 60.06L8.7 72.76C8.72667 72.92 8.68 73 8.56 73H6.9C6.80667 73 6.74667 72.9533 6.72 72.86L5.3 64.6C5.20667 64.1467 5.12 63.6933 5.04 63.24C4.97333 62.7733 4.90667 62.3067 4.84 61.84H4.8C4.74667 62.3067 4.68667 62.7733 4.62 63.24C4.55333 63.6933 4.47333 64.1533 4.38 64.62L2.94 72.84C2.92667 72.9467 2.86667 73 2.76 73H1.12ZM3.16 70.02L3.44 68.4H6.18L6.52 70.02H3.16ZM10.8294 73C10.736 73 10.676 72.9467 10.6494 72.84L8.08938 60.14C8.07604 59.98 8.12271 59.9 8.22938 59.9H9.86938C9.97604 59.9 10.0427 59.9467 10.0694 60.04L11.4694 68.22C11.5494 68.6733 11.6227 69.14 11.6894 69.62C11.756 70.0867 11.816 70.5667 11.8694 71.06H11.9094C11.9627 70.5667 12.0227 70.0867 12.0894 69.62C12.1694 69.14 12.2494 68.6733 12.3294 68.22L13.7094 60.06C13.7227 59.9533 13.7827 59.9 13.8894 59.9H15.5494C15.656 59.9 15.7027 59.9733 15.6894 60.12L13.1494 72.84C13.1094 72.9467 13.0494 73 12.9694 73H10.8294ZM16.7781 73C16.6581 73 16.5981 72.9333 16.5981 72.8V60.1C16.5981 59.9667 16.6515 59.9 16.7581 59.9H21.8581C21.9648 59.9 22.0181 59.9667 22.0181 60.1V61.4C22.0181 61.5467 21.9648 61.62 21.8581 61.62H18.4581V65.52H21.5581C21.6648 65.52 21.7181 65.5933 21.7181 65.74V66.96C21.7181 67.0933 21.6648 67.16 21.5581 67.16H18.4581V71.28H21.8581C21.9648 71.28 22.0181 71.3533 22.0181 71.5V72.8C22.0181 72.9333 21.9648 73 21.8581 73H16.7781ZM23.6284 73C23.5218 73 23.4684 72.9333 23.4684 72.8V60.1C23.4684 59.9667 23.5218 59.9 23.6284 59.9H26.1884C27.4151 59.9 28.3084 60.2 28.8684 60.8C29.4284 61.4 29.7084 62.3333 29.7084 63.6C29.7084 64.5867 29.5684 65.3733 29.2884 65.96C29.0218 66.5333 28.6351 66.9333 28.1284 67.16L28.1084 67.18L30.1884 72.74C30.2284 72.9133 30.1751 73 30.0284 73H28.3884C28.2951 73 28.2284 72.9533 28.1884 72.86L26.3484 67.56H25.3284V72.8C25.3284 72.9333 25.2684 73 25.1484 73H23.6284ZM25.3284 65.94H26.2284C26.8151 65.94 27.2351 65.76 27.4884 65.4C27.7418 65.0267 27.8684 64.4667 27.8684 63.72C27.8684 62.9733 27.7284 62.44 27.4484 62.12C27.1818 61.7867 26.7618 61.62 26.1884 61.62H25.3284V65.94ZM30.4763 73C30.3696 73 30.3229 72.9267 30.3363 72.78L32.9963 60.06C33.0096 59.9533 33.0763 59.9 33.1963 59.9H35.1963C35.3163 59.9 35.3829 59.9533 35.3963 60.06L38.0563 72.76C38.0829 72.92 38.0363 73 37.9163 73H36.2563C36.1629 73 36.1029 72.9533 36.0763 72.86L34.6563 64.6C34.5629 64.1467 34.4763 63.6933 34.3963 63.24C34.3296 62.7733 34.2629 62.3067 34.1963 61.84H34.1563C34.1029 62.3067 34.0429 62.7733 33.9763 63.24C33.9096 63.6933 33.8296 64.1533 33.7363 64.62L32.2963 72.84C32.2829 72.9467 32.2229 73 32.1163 73H30.4763ZM32.5163 70.02L32.7963 68.4H35.5363L35.8763 70.02H32.5163ZM41.4548 73.12C40.4548 73.12 39.7015 72.7867 39.1948 72.12C38.7015 71.4533 38.4548 70.4467 38.4548 69.1V63.96C38.4548 62.6 38.7482 61.5667 39.3348 60.86C39.9348 60.14 40.8015 59.78 41.9348 59.78C43.0815 59.78 43.9482 60.16 44.5348 60.92C45.1348 61.6667 45.3815 62.6933 45.2748 64C45.2748 64.12 45.2215 64.18 45.1148 64.18H43.5748C43.4548 64.18 43.4082 64.1133 43.4348 63.98C43.5148 63.1933 43.4215 62.5867 43.1548 62.16C42.8882 61.72 42.4882 61.5 41.9548 61.5C41.3948 61.5 40.9815 61.7067 40.7148 62.12C40.4482 62.52 40.3148 63.1467 40.3148 64V68.94C40.3148 69.82 40.4282 70.4533 40.6548 70.84C40.8948 71.2133 41.3015 71.4 41.8748 71.4C42.4215 71.4 42.8348 71.18 43.1148 70.74C43.3948 70.3 43.5348 69.6333 43.5348 68.74V67.78H42.0748C41.9548 67.78 41.8948 67.7067 41.8948 67.56V66.48C41.8948 66.3467 41.9548 66.28 42.0748 66.28H45.1748C45.2815 66.28 45.3348 66.3467 45.3348 66.48V70.2C45.3348 70.8267 45.3415 71.3333 45.3548 71.72C45.3815 72.1067 45.4148 72.46 45.4548 72.78C45.4815 72.9267 45.4282 73 45.2948 73H44.0948C43.9882 73 43.9282 72.94 43.9148 72.82C43.8882 72.66 43.8682 72.4733 43.8548 72.26C43.8415 72.0333 43.8282 71.76 43.8148 71.44H43.7948C43.5948 71.96 43.3015 72.3733 42.9148 72.68C42.5415 72.9733 42.0548 73.12 41.4548 73.12ZM47.1695 73C47.0495 73 46.9895 72.9333 46.9895 72.8V60.1C46.9895 59.9667 47.0429 59.9 47.1495 59.9H52.2495C52.3562 59.9 52.4095 59.9667 52.4095 60.1V61.4C52.4095 61.5467 52.3562 61.62 52.2495 61.62H48.8495V65.52H51.9495C52.0562 65.52 52.1095 65.5933 52.1095 65.74V66.96C52.1095 67.0933 52.0562 67.16 51.9495 67.16H48.8495V71.28H52.2495C52.3562 71.28 52.4095 71.3533 52.4095 71.5V72.8C52.4095 72.9333 52.3562 73 52.2495 73H47.1695ZM58.7998 73.12C58.0132 73.12 57.3865 72.96 56.9198 72.64C56.4532 72.32 56.1265 71.88 55.9398 71.32C55.7665 70.7467 55.7065 70.08 55.7598 69.32C55.7732 69.1733 55.8332 69.1 55.9398 69.1H57.4198C57.5398 69.1 57.5932 69.1733 57.5798 69.32C57.4998 70.0133 57.5732 70.54 57.7998 70.9C58.0265 71.26 58.3732 71.44 58.8398 71.44C59.2798 71.44 59.6065 71.3133 59.8198 71.06C60.0332 70.7933 60.1398 70.3733 60.1398 69.8C60.1398 69.32 60.0665 68.9133 59.9198 68.58C59.7732 68.2333 59.5265 67.9333 59.1798 67.68L57.5198 66.38C56.9332 65.9267 56.4998 65.4333 56.2198 64.9C55.9398 64.3533 55.8065 63.6867 55.8198 62.9C55.8332 61.9 56.0932 61.1333 56.5998 60.6C57.1065 60.0533 57.8332 59.78 58.7798 59.78C59.8865 59.78 60.6932 60.1067 61.1998 60.76C61.7065 61.4133 61.9065 62.3133 61.7998 63.46C61.7998 63.6333 61.7465 63.72 61.6398 63.72H60.1198C60.0132 63.72 59.9665 63.6333 59.9798 63.46C60.0465 62.8467 59.9798 62.36 59.7798 62C59.5798 61.64 59.2665 61.46 58.8398 61.46C58.4798 61.46 58.1932 61.58 57.9798 61.82C57.7798 62.0467 57.6732 62.4 57.6598 62.88C57.6598 63.3467 57.7465 63.74 57.9198 64.06C58.0932 64.38 58.3465 64.6733 58.6798 64.94L60.2998 66.18C60.7132 66.5 61.0398 66.8267 61.2798 67.16C61.5332 67.4933 61.7132 67.8733 61.8198 68.3C61.9398 68.7133 61.9998 69.2067 61.9998 69.78C61.9998 70.8333 61.7398 71.6533 61.2198 72.24C60.7132 72.8267 59.9065 73.12 58.7998 73.12ZM63.4055 73C63.2855 73 63.2255 72.9333 63.2255 72.8V60.1C63.2255 59.9667 63.2788 59.9 63.3855 59.9H68.4855C68.5921 59.9 68.6455 59.9667 68.6455 60.1V61.4C68.6455 61.5467 68.5921 61.62 68.4855 61.62H65.0855V65.52H68.1855C68.2921 65.52 68.3455 65.5933 68.3455 65.74V66.96C68.3455 67.0933 68.2921 67.16 68.1855 67.16H65.0855V71.28H68.4855C68.5921 71.28 68.6455 71.3533 68.6455 71.5V72.8C68.6455 72.9333 68.5921 73 68.4855 73H63.4055ZM70.2558 73C70.1491 73 70.0958 72.9333 70.0958 72.8V60.1C70.0958 59.9667 70.1491 59.9 70.2558 59.9H72.8158C74.0424 59.9 74.9358 60.2 75.4958 60.8C76.0558 61.4 76.3358 62.3333 76.3358 63.6C76.3358 64.5867 76.1958 65.3733 75.9158 65.96C75.6491 66.5333 75.2624 66.9333 74.7558 67.16L74.7358 67.18L76.8158 72.74C76.8558 72.9133 76.8024 73 76.6558 73H75.0158C74.9224 73 74.8558 72.9533 74.8158 72.86L72.9758 67.56H71.9558V72.8C71.9558 72.9333 71.8958 73 71.7758 73H70.2558ZM71.9558 65.94H72.8558C73.4424 65.94 73.8624 65.76 74.1158 65.4C74.3691 65.0267 74.4958 64.4667 74.4958 63.72C74.4958 62.9733 74.3558 62.44 74.0758 62.12C73.8091 61.7867 73.3891 61.62 72.8158 61.62H71.9558V65.94ZM79.7083 73C79.615 73 79.555 72.9467 79.5283 72.84L76.9683 60.14C76.955 59.98 77.0016 59.9 77.1083 59.9H78.7483C78.855 59.9 78.9216 59.9467 78.9483 60.04L80.3483 68.22C80.4283 68.6733 80.5016 69.14 80.5683 69.62C80.635 70.0867 80.695 70.5667 80.7483 71.06H80.7883C80.8416 70.5667 80.9016 70.0867 80.9683 69.62C81.0483 69.14 81.1283 68.6733 81.2083 68.22L82.5883 60.06C82.6016 59.9533 82.6616 59.9 82.7683 59.9H84.4283C84.535 59.9 84.5816 59.9733 84.5683 60.12L82.0283 72.84C81.9883 72.9467 81.9283 73 81.8483 73H79.7083ZM85.637 73C85.5304 73 85.477 72.9333 85.477 72.8V60.1C85.477 59.9667 85.5304 59.9 85.637 59.9H87.157C87.277 59.9 87.337 59.9667 87.337 60.1V72.8C87.337 72.9333 87.277 73 87.157 73H85.637ZM92.2489 73.12C91.1156 73.12 90.2489 72.78 89.6489 72.1C89.0622 71.4067 88.7689 70.3467 88.7689 68.92V63.98C88.7689 62.58 89.0622 61.5333 89.6489 60.84C90.2489 60.1333 91.1156 59.78 92.2489 59.78C93.0622 59.78 93.7356 59.9667 94.2689 60.34C94.8022 60.7 95.1822 61.2133 95.4089 61.88C95.6489 62.5467 95.7156 63.34 95.6089 64.26C95.5822 64.3933 95.5289 64.46 95.4489 64.46H93.9089C93.7756 64.46 93.7222 64.38 93.7489 64.22C93.8156 63.34 93.7289 62.6667 93.4889 62.2C93.2489 61.7333 92.8356 61.5 92.2489 61.5C91.7022 61.5 91.2956 61.7 91.0289 62.1C90.7622 62.5 90.6289 63.16 90.6289 64.08V68.8C90.6289 69.72 90.7622 70.3867 91.0289 70.8C91.3089 71.2 91.7156 71.4 92.2489 71.4C92.8889 71.4 93.3156 71.1533 93.5289 70.66C93.7556 70.1667 93.8422 69.5 93.7889 68.66C93.7622 68.5133 93.8156 68.44 93.9489 68.44H95.4089C95.5289 68.44 95.6022 68.5133 95.6289 68.66C95.7222 70.06 95.4822 71.1533 94.9089 71.94C94.3489 72.7267 93.4622 73.12 92.2489 73.12ZM97.2687 73C97.1487 73 97.0887 72.9333 97.0887 72.8V60.1C97.0887 59.9667 97.1421 59.9 97.2487 59.9H102.349C102.455 59.9 102.509 59.9667 102.509 60.1V61.4C102.509 61.5467 102.455 61.62 102.349 61.62H98.9487V65.52H102.049C102.155 65.52 102.209 65.5933 102.209 65.74V66.96C102.209 67.0933 102.155 67.16 102.049 67.16H98.9487V71.28H102.349C102.455 71.28 102.509 71.3533 102.509 71.5V72.8C102.509 72.9333 102.455 73 102.349 73H97.2687Z" fill="#5D0F36"/>
<path opacity="0.5" d="M242.549 101.927C242.848 101.006 244.152 101.006 244.451 101.927L245.408 104.873C245.542 105.285 245.926 105.564 246.359 105.564H249.457C250.426 105.564 250.829 106.804 250.045 107.373L247.539 109.194C247.188 109.449 247.042 109.9 247.176 110.312L248.133 113.259C248.432 114.18 247.378 114.946 246.594 114.377L244.088 112.556C243.737 112.301 243.263 112.301 242.912 112.556L240.406 114.377C239.622 114.946 238.568 114.18 238.867 113.259L239.824 110.312C239.958 109.9 239.812 109.449 239.461 109.194L236.955 107.373C236.171 106.804 236.574 105.564 237.543 105.564H240.641C241.074 105.564 241.458 105.285 241.592 104.873L242.549 101.927Z" fill="white"/>
<path opacity="0.5" d="M198.549 101.927C198.848 101.006 200.152 101.006 200.451 101.927L201.408 104.873C201.542 105.285 201.926 105.564 202.359 105.564H205.457C206.426 105.564 206.829 106.804 206.045 107.373L203.539 109.194C203.188 109.449 203.042 109.9 203.176 110.312L204.133 113.259C204.432 114.18 203.378 114.946 202.594 114.377L200.088 112.556C199.737 112.301 199.263 112.301 198.912 112.556L196.406 114.377C195.622 114.946 194.568 114.18 194.867 113.259L195.824 110.312C195.958 109.9 195.812 109.449 195.461 109.194L192.955 107.373C192.171 106.804 192.574 105.564 193.543 105.564H196.641C197.074 105.564 197.458 105.285 197.592 104.873L198.549 101.927Z" fill="white"/>
<path d="M220.549 91.927C220.848 91.0057 222.152 91.0057 222.451 91.9271L224.755 99.0193C224.889 99.4313 225.273 99.7102 225.707 99.7102H233.164C234.132 99.7102 234.535 100.95 233.751 101.519L227.718 105.902C227.368 106.157 227.221 106.608 227.355 107.021L229.66 114.113C229.959 115.034 228.904 115.8 228.121 115.231L222.088 110.848C221.737 110.593 221.263 110.593 220.912 110.848L214.879 115.231C214.096 115.8 213.041 115.034 213.34 114.113L215.645 107.021C215.779 106.608 215.632 106.157 215.282 105.902L209.249 101.519C208.465 100.95 208.868 99.7102 209.836 99.7102H217.293C217.727 99.7102 218.111 99.4313 218.245 99.0193L220.549 91.927Z" fill="white"/>
</svg>
