<svg width="141" height="124" viewBox="0 0 141 124" fill="none" xmlns="http://www.w3.org/2000/svg">
<path d="M1.052 91C0.849333 91 0.748 90.8733 0.748 90.62V66.49C0.748 66.2367 0.849333 66.11 1.052 66.11H5.916C8.24667 66.11 9.944 66.68 11.008 67.82C12.072 68.96 12.604 70.7333 12.604 73.14C12.604 75.0147 12.338 76.5093 11.806 77.624C11.2993 78.7133 10.5647 79.4733 9.602 79.904L9.564 79.942L13.516 90.506C13.592 90.8353 13.4907 91 13.212 91H10.096C9.91867 91 9.792 90.9113 9.716 90.734L6.22 80.664H4.282V90.62C4.282 90.8733 4.168 91 3.94 91H1.052ZM4.282 77.586H5.992C7.10667 77.586 7.90467 77.244 8.386 76.56C8.86733 75.8507 9.108 74.7867 9.108 73.368C9.108 71.9493 8.842 70.936 8.31 70.328C7.80333 69.6947 7.00533 69.378 5.916 69.378H4.282V77.586ZM14.0628 91C13.8602 91 13.7715 90.8607 13.7968 90.582L18.8508 66.414C18.8762 66.2113 19.0028 66.11 19.2308 66.11H23.0308C23.2588 66.11 23.3855 66.2113 23.4108 66.414L28.4648 90.544C28.5155 90.848 28.4268 91 28.1988 91H25.0448C24.8675 91 24.7535 90.9113 24.7028 90.734L22.0048 75.04C21.8275 74.1787 21.6628 73.3173 21.5108 72.456C21.3842 71.5693 21.2575 70.6827 21.1308 69.796H21.0548C20.9535 70.6827 20.8395 71.5693 20.7128 72.456C20.5862 73.3173 20.4342 74.1913 20.2568 75.078L17.5208 90.696C17.4955 90.8987 17.3815 91 17.1788 91H14.0628ZM17.9388 85.338L18.4708 82.26H23.6768L24.3228 85.338H17.9388ZM31.9098 91C31.6818 91 31.5678 90.8733 31.5678 90.62V69.378H27.6158C27.3878 69.378 27.2738 69.2387 27.2738 68.96V66.49C27.2738 66.2367 27.3878 66.11 27.6158 66.11H39.0918C39.2944 66.11 39.3958 66.2367 39.3958 66.49V68.96C39.3958 69.2387 39.2944 69.378 39.0918 69.378H35.1018V90.62C35.1018 90.8733 34.9878 91 34.7598 91H31.9098ZM41.66 91C41.4574 91 41.356 90.8733 41.356 90.62V66.49C41.356 66.2367 41.4574 66.11 41.66 66.11H44.548C44.776 66.11 44.89 66.2367 44.89 66.49V90.62C44.89 90.8733 44.776 91 44.548 91H41.66ZM48.2566 91C48.0539 91 47.9526 90.8733 47.9526 90.62V66.49C47.9526 66.2367 48.0539 66.11 48.2566 66.11H52.2466C52.4493 66.11 52.5759 66.1987 52.6266 66.376L56.2746 79.524C56.4519 80.1827 56.6419 80.9173 56.8446 81.728C57.0473 82.5133 57.2373 83.3113 57.4146 84.122C57.5919 84.9073 57.7439 85.6167 57.8706 86.25H57.9466C57.8959 85.7433 57.8579 85.1607 57.8326 84.502C57.8073 83.8433 57.7819 83.172 57.7566 82.488C57.7313 81.804 57.7059 81.1327 57.6806 80.474C57.6806 79.8153 57.6806 79.2327 57.6806 78.726V66.49C57.6806 66.2367 57.7819 66.11 57.9846 66.11H60.6826C60.9106 66.11 61.0246 66.2367 61.0246 66.49V90.62C61.0246 90.8733 60.9106 91 60.6826 91H56.7306C56.5533 91 56.4393 90.924 56.3886 90.772L52.7786 77.928C52.4239 76.6867 52.1199 75.4707 51.8666 74.28C51.6133 73.064 51.3726 71.9493 51.1446 70.936H51.0686C51.1193 71.6707 51.1573 72.5193 51.1826 73.482C51.2079 74.4193 51.2333 75.3693 51.2586 76.332C51.2839 77.2947 51.2966 78.1433 51.2966 78.878V90.62C51.2966 90.8733 51.1953 91 50.9926 91H48.2566ZM69.4443 91.228C67.5443 91.228 66.1129 90.5947 65.1503 89.328C64.2129 88.0613 63.7443 86.1487 63.7443 83.59V73.824C63.7443 71.24 64.3016 69.2767 65.4163 67.934C66.5563 66.566 68.2029 65.882 70.3563 65.882C72.5349 65.882 74.1816 66.604 75.2963 68.048C76.4363 69.4667 76.9049 71.4173 76.7023 73.9C76.7023 74.128 76.6009 74.242 76.3983 74.242H73.4723C73.2443 74.242 73.1556 74.1153 73.2063 73.862C73.3583 72.3673 73.1809 71.2147 72.6743 70.404C72.1676 69.568 71.4076 69.15 70.3943 69.15C69.3303 69.15 68.5449 69.5427 68.0383 70.328C67.5316 71.088 67.2783 72.2787 67.2783 73.9V83.286C67.2783 84.958 67.4936 86.1613 67.9243 86.896C68.3803 87.6053 69.1529 87.96 70.2423 87.96C71.2809 87.96 72.0663 87.542 72.5983 86.706C73.1303 85.87 73.3963 84.6033 73.3963 82.906V81.082H70.6223C70.3943 81.082 70.2803 80.9427 70.2803 80.664V78.612C70.2803 78.3587 70.3943 78.232 70.6223 78.232H76.5123C76.7149 78.232 76.8163 78.3587 76.8163 78.612V85.68C76.8163 86.8707 76.8289 87.8333 76.8543 88.568C76.9049 89.3027 76.9683 89.974 77.0443 90.582C77.0949 90.8607 76.9936 91 76.7403 91H74.4603C74.2576 91 74.1436 90.886 74.1183 90.658C74.0676 90.354 74.0296 89.9993 74.0043 89.594C73.9789 89.1633 73.9536 88.644 73.9283 88.036H73.8903C73.5103 89.024 72.9529 89.8093 72.2183 90.392C71.5089 90.9493 70.5843 91.228 69.4443 91.228Z" fill="#FF2E6D"/>
<path d="M1.072 58C1.008 58 0.98 57.956 0.988 57.868L2.584 50.236C2.592 50.172 2.632 50.14 2.704 50.14H3.904C3.976 50.14 4.016 50.172 4.024 50.236L5.62 57.856C5.636 57.952 5.608 58 5.536 58H4.54C4.484 58 4.448 57.972 4.432 57.916L3.58 52.96C3.524 52.688 3.472 52.416 3.424 52.144C3.384 51.864 3.344 51.584 3.304 51.304H3.28C3.248 51.584 3.212 51.864 3.172 52.144C3.132 52.416 3.084 52.692 3.028 52.972L2.164 57.904C2.156 57.968 2.12 58 2.056 58H1.072ZM2.296 56.212L2.464 55.24H4.108L4.312 56.212H2.296ZM6.89763 58C6.84163 58 6.80563 57.968 6.78963 57.904L5.25363 50.284C5.24563 50.188 5.27363 50.14 5.33763 50.14H6.32163C6.38563 50.14 6.42563 50.168 6.44163 50.224L7.28163 55.132C7.32963 55.404 7.37363 55.684 7.41363 55.972C7.45363 56.252 7.48963 56.54 7.52163 56.836H7.54563C7.57763 56.54 7.61363 56.252 7.65363 55.972C7.70163 55.684 7.74963 55.404 7.79763 55.132L8.62563 50.236C8.63363 50.172 8.66963 50.14 8.73363 50.14H9.72963C9.79363 50.14 9.82163 50.184 9.81363 50.272L8.28963 57.904C8.26563 57.968 8.22963 58 8.18163 58H6.89763ZM10.4669 58C10.3949 58 10.3589 57.96 10.3589 57.88V50.26C10.3589 50.18 10.3909 50.14 10.4549 50.14H13.5149C13.5789 50.14 13.6109 50.18 13.6109 50.26V51.04C13.6109 51.128 13.5789 51.172 13.5149 51.172H11.4749V53.512H13.3349C13.3989 53.512 13.4309 53.556 13.4309 53.644V54.376C13.4309 54.456 13.3989 54.496 13.3349 54.496H11.4749V56.968H13.5149C13.5789 56.968 13.6109 57.012 13.6109 57.1V57.88C13.6109 57.96 13.5789 58 13.5149 58H10.4669ZM14.5771 58C14.5131 58 14.4811 57.96 14.4811 57.88V50.26C14.4811 50.18 14.5131 50.14 14.5771 50.14H16.1131C16.8491 50.14 17.3851 50.32 17.7211 50.68C18.0571 51.04 18.2251 51.6 18.2251 52.36C18.2251 52.952 18.1411 53.424 17.9731 53.776C17.8131 54.12 17.5811 54.36 17.2771 54.496L17.2651 54.508L18.5131 57.844C18.5371 57.948 18.5051 58 18.4171 58H17.4331C17.3771 58 17.3371 57.972 17.3131 57.916L16.2091 54.736H15.5971V57.88C15.5971 57.96 15.5611 58 15.4891 58H14.5771ZM15.5971 53.764H16.1371C16.4891 53.764 16.7411 53.656 16.8931 53.44C17.0451 53.216 17.1211 52.88 17.1211 52.432C17.1211 51.984 17.0371 51.664 16.8691 51.472C16.7091 51.272 16.4571 51.172 16.1131 51.172H15.5971V53.764ZM18.6858 58C18.6218 58 18.5938 57.956 18.6018 57.868L20.1978 50.236C20.2058 50.172 20.2458 50.14 20.3178 50.14H21.5178C21.5898 50.14 21.6298 50.172 21.6378 50.236L23.2338 57.856C23.2498 57.952 23.2218 58 23.1498 58H22.1538C22.0978 58 22.0618 57.972 22.0458 57.916L21.1938 52.96C21.1378 52.688 21.0858 52.416 21.0378 52.144C20.9978 51.864 20.9578 51.584 20.9178 51.304H20.8938C20.8618 51.584 20.8258 51.864 20.7858 52.144C20.7458 52.416 20.6978 52.692 20.6418 52.972L19.7778 57.904C19.7698 57.968 19.7338 58 19.6698 58H18.6858ZM19.9098 56.212L20.0778 55.24H21.7218L21.9258 56.212H19.9098ZM25.2729 58.072C24.6729 58.072 24.2209 57.872 23.9169 57.472C23.6209 57.072 23.4729 56.468 23.4729 55.66V52.576C23.4729 51.76 23.6489 51.14 24.0009 50.716C24.3609 50.284 24.8809 50.068 25.5609 50.068C26.2489 50.068 26.7689 50.296 27.1209 50.752C27.4809 51.2 27.6289 51.816 27.5649 52.6C27.5649 52.672 27.5329 52.708 27.4689 52.708H26.5449C26.4729 52.708 26.4449 52.668 26.4609 52.588C26.5089 52.116 26.4529 51.752 26.2929 51.496C26.1329 51.232 25.8929 51.1 25.5729 51.1C25.2369 51.1 24.9889 51.224 24.8289 51.472C24.6689 51.712 24.5889 52.088 24.5889 52.6V55.564C24.5889 56.092 24.6569 56.472 24.7929 56.704C24.9369 56.928 25.1809 57.04 25.5249 57.04C25.8529 57.04 26.1009 56.908 26.2689 56.644C26.4369 56.38 26.5209 55.98 26.5209 55.444V54.868H25.6449C25.5729 54.868 25.5369 54.824 25.5369 54.736V54.088C25.5369 54.008 25.5729 53.968 25.6449 53.968H27.5049C27.5689 53.968 27.6009 54.008 27.6009 54.088V56.32C27.6009 56.696 27.6049 57 27.6129 57.232C27.6289 57.464 27.6489 57.676 27.6729 57.868C27.6889 57.956 27.6569 58 27.5769 58H26.8569C26.7929 58 26.7569 57.964 26.7489 57.892C26.7329 57.796 26.7209 57.684 26.7129 57.556C26.7049 57.42 26.6969 57.256 26.6889 57.064H26.6769C26.5569 57.376 26.3809 57.624 26.1489 57.808C25.9249 57.984 25.6329 58.072 25.2729 58.072ZM28.7017 58C28.6297 58 28.5937 57.96 28.5937 57.88V50.26C28.5937 50.18 28.6257 50.14 28.6897 50.14H31.7497C31.8137 50.14 31.8457 50.18 31.8457 50.26V51.04C31.8457 51.128 31.8137 51.172 31.7497 51.172H29.7097V53.512H31.5697C31.6337 53.512 31.6657 53.556 31.6657 53.644V54.376C31.6657 54.456 31.6337 54.496 31.5697 54.496H29.7097V56.968H31.7497C31.8137 56.968 31.8457 57.012 31.8457 57.1V57.88C31.8457 57.96 31.8137 58 31.7497 58H28.7017ZM35.6799 58.072C35.2079 58.072 34.8319 57.976 34.5519 57.784C34.2719 57.592 34.0759 57.328 33.9639 56.992C33.8599 56.648 33.8239 56.248 33.8559 55.792C33.8639 55.704 33.8999 55.66 33.9639 55.66H34.8519C34.9239 55.66 34.9559 55.704 34.9479 55.792C34.8999 56.208 34.9439 56.524 35.0799 56.74C35.2159 56.956 35.4239 57.064 35.7039 57.064C35.9679 57.064 36.1639 56.988 36.2919 56.836C36.4199 56.676 36.4839 56.424 36.4839 56.08C36.4839 55.792 36.4399 55.548 36.3519 55.348C36.2639 55.14 36.1159 54.96 35.9079 54.808L34.9119 54.028C34.5599 53.756 34.2999 53.46 34.1319 53.14C33.9639 52.812 33.8839 52.412 33.8919 51.94C33.8999 51.34 34.0559 50.88 34.3599 50.56C34.6639 50.232 35.0999 50.068 35.6679 50.068C36.3319 50.068 36.8159 50.264 37.1199 50.656C37.4239 51.048 37.5439 51.588 37.4799 52.276C37.4799 52.38 37.4479 52.432 37.3839 52.432H36.4719C36.4079 52.432 36.3799 52.38 36.3879 52.276C36.4279 51.908 36.3879 51.616 36.2679 51.4C36.1479 51.184 35.9599 51.076 35.7039 51.076C35.4879 51.076 35.3159 51.148 35.1879 51.292C35.0679 51.428 35.0039 51.64 34.9959 51.928C34.9959 52.208 35.0479 52.444 35.1519 52.636C35.2559 52.828 35.4079 53.004 35.6079 53.164L36.5799 53.908C36.8279 54.1 37.0239 54.296 37.1679 54.496C37.3199 54.696 37.4279 54.924 37.4919 55.18C37.5639 55.428 37.5999 55.724 37.5999 56.068C37.5999 56.7 37.4439 57.192 37.1319 57.544C36.8279 57.896 36.3439 58.072 35.6799 58.072ZM38.4433 58C38.3713 58 38.3353 57.96 38.3353 57.88V50.26C38.3353 50.18 38.3673 50.14 38.4313 50.14H41.4913C41.5553 50.14 41.5873 50.18 41.5873 50.26V51.04C41.5873 51.128 41.5553 51.172 41.4913 51.172H39.4513V53.512H41.3113C41.3753 53.512 41.4073 53.556 41.4073 53.644V54.376C41.4073 54.456 41.3753 54.496 41.3113 54.496H39.4513V56.968H41.4913C41.5553 56.968 41.5873 57.012 41.5873 57.1V57.88C41.5873 57.96 41.5553 58 41.4913 58H38.4433ZM42.5535 58C42.4895 58 42.4575 57.96 42.4575 57.88V50.26C42.4575 50.18 42.4895 50.14 42.5535 50.14H44.0895C44.8255 50.14 45.3615 50.32 45.6975 50.68C46.0335 51.04 46.2015 51.6 46.2015 52.36C46.2015 52.952 46.1175 53.424 45.9495 53.776C45.7895 54.12 45.5575 54.36 45.2535 54.496L45.2415 54.508L46.4895 57.844C46.5135 57.948 46.4815 58 46.3935 58H45.4095C45.3535 58 45.3135 57.972 45.2895 57.916L44.1855 54.736H43.5735V57.88C43.5735 57.96 43.5375 58 43.4655 58H42.5535ZM43.5735 53.764H44.1135C44.4655 53.764 44.7175 53.656 44.8695 53.44C45.0215 53.216 45.0975 52.88 45.0975 52.432C45.0975 51.984 45.0135 51.664 44.8455 51.472C44.6855 51.272 44.4335 51.172 44.0895 51.172H43.5735V53.764ZM48.225 58C48.169 58 48.133 57.968 48.117 57.904L46.581 50.284C46.573 50.188 46.601 50.14 46.665 50.14H47.649C47.713 50.14 47.753 50.168 47.769 50.224L48.609 55.132C48.657 55.404 48.701 55.684 48.741 55.972C48.781 56.252 48.817 56.54 48.849 56.836H48.873C48.905 56.54 48.941 56.252 48.981 55.972C49.029 55.684 49.077 55.404 49.125 55.132L49.953 50.236C49.961 50.172 49.997 50.14 50.061 50.14H51.057C51.121 50.14 51.149 50.184 51.141 50.272L49.617 57.904C49.593 57.968 49.557 58 49.509 58H48.225ZM51.7822 58C51.7182 58 51.6862 57.96 51.6862 57.88V50.26C51.6862 50.18 51.7182 50.14 51.7822 50.14H52.6942C52.7662 50.14 52.8022 50.18 52.8022 50.26V57.88C52.8022 57.96 52.7662 58 52.6942 58H51.7822ZM55.7493 58.072C55.0693 58.072 54.5493 57.868 54.1893 57.46C53.8373 57.044 53.6613 56.408 53.6613 55.552V52.588C53.6613 51.748 53.8373 51.12 54.1893 50.704C54.5493 50.28 55.0693 50.068 55.7493 50.068C56.2373 50.068 56.6413 50.18 56.9613 50.404C57.2813 50.62 57.5093 50.928 57.6453 51.328C57.7893 51.728 57.8293 52.204 57.7653 52.756C57.7493 52.836 57.7173 52.876 57.6693 52.876H56.7453C56.6653 52.876 56.6333 52.828 56.6493 52.732C56.6893 52.204 56.6373 51.8 56.4933 51.52C56.3493 51.24 56.1013 51.1 55.7493 51.1C55.4213 51.1 55.1773 51.22 55.0173 51.46C54.8573 51.7 54.7773 52.096 54.7773 52.648V55.48C54.7773 56.032 54.8573 56.432 55.0173 56.68C55.1853 56.92 55.4293 57.04 55.7493 57.04C56.1333 57.04 56.3893 56.892 56.5173 56.596C56.6533 56.3 56.7053 55.9 56.6733 55.396C56.6573 55.308 56.6893 55.264 56.7693 55.264H57.6453C57.7173 55.264 57.7613 55.308 57.7773 55.396C57.8333 56.236 57.6893 56.892 57.3453 57.364C57.0093 57.836 56.4773 58.072 55.7493 58.072ZM58.7612 58C58.6892 58 58.6532 57.96 58.6532 57.88V50.26C58.6532 50.18 58.6852 50.14 58.7492 50.14H61.8092C61.8732 50.14 61.9052 50.18 61.9052 50.26V51.04C61.9052 51.128 61.8732 51.172 61.8092 51.172H59.7692V53.512H61.6292C61.6932 53.512 61.7252 53.556 61.7252 53.644V54.376C61.7252 54.456 61.6932 54.496 61.6292 54.496H59.7692V56.968H61.8092C61.8732 56.968 61.9052 57.012 61.9052 57.1V57.88C61.9052 57.96 61.8732 58 61.8092 58H58.7612Z" fill="#5D0F36"/>
<path d="M141 0H93V124L117.727 112.68L141 122.746V0Z" fill="#FF2E6D"/>
<path d="M110.116 62.5C109.881 62.5 109.763 62.3825 109.763 62.1474V58.5899H102.969C102.712 58.5899 102.584 58.4617 102.584 58.2053V57.7245C102.584 57.6177 102.595 57.5109 102.616 57.404C102.637 57.2972 102.659 57.2117 102.68 57.1476L107.712 41.7637C107.776 41.5927 107.894 41.5072 108.065 41.5072H110.693C110.949 41.5072 111.034 41.6461 110.949 41.9239L106.654 55.6093H109.763L110.276 48.9429C110.297 48.7078 110.415 48.5903 110.629 48.5903H112.68C112.915 48.5903 113.032 48.7078 113.032 48.9429V55.6093H114.09C114.325 55.6093 114.442 55.7268 114.442 55.9618V58.2053C114.442 58.4617 114.325 58.5899 114.09 58.5899H113.032V62.1474C113.032 62.3825 112.915 62.5 112.68 62.5H110.116ZM117.889 62.6923C117.248 62.6923 116.724 62.532 116.318 62.2115C115.934 61.8697 115.742 61.3782 115.742 60.7372V60.2565C115.742 59.6155 115.934 59.1348 116.318 58.8143C116.724 58.4724 117.248 58.3014 117.889 58.3014C118.594 58.3014 119.128 58.4724 119.491 58.8143C119.855 59.1348 120.036 59.6155 120.036 60.2565V60.7372C120.036 61.3782 119.855 61.8697 119.491 62.2115C119.128 62.532 118.594 62.6923 117.889 62.6923ZM126.417 62.6923C125.242 62.6923 124.281 62.4573 123.533 61.9872C122.785 61.5171 122.251 60.8548 121.93 60.0001C121.631 59.1454 121.524 58.1305 121.61 56.9553C121.631 56.8058 121.663 56.7096 121.706 56.6669C121.77 56.6242 121.856 56.6028 121.962 56.6028H124.334C124.569 56.6028 124.687 56.7203 124.687 56.9553C124.665 57.81 124.772 58.4938 125.007 59.0065C125.264 59.5194 125.755 59.7758 126.482 59.7758C127.187 59.7758 127.699 59.498 128.02 58.9424C128.34 58.3655 128.501 57.4895 128.501 56.3144V55.1605C128.501 54.4127 128.426 53.8038 128.276 53.3337C128.127 52.8423 127.892 52.479 127.571 52.244C127.251 52.009 126.823 51.8914 126.289 51.8914C125.691 51.8914 125.061 51.9983 124.398 52.2119C123.736 52.4042 123.106 52.65 122.507 52.9491C122.336 53.0346 122.197 53.0559 122.091 53.0132C122.005 52.9491 121.962 52.8423 121.962 52.6927L122.668 41.8598C122.689 41.6248 122.806 41.5072 123.02 41.5072H130.488C130.744 41.5072 130.872 41.6248 130.872 41.8598V44.1033C130.872 44.3383 130.744 44.4558 130.488 44.4558H125.456L125.103 49.6479C125.573 49.477 126.011 49.3488 126.417 49.2633C126.823 49.1779 127.261 49.1351 127.731 49.1351C129.142 49.1351 130.178 49.6693 130.84 50.7376C131.503 51.7846 131.834 53.4726 131.834 55.8015C131.834 58.0664 131.396 59.7864 130.52 60.9616C129.665 62.1154 128.298 62.6923 126.417 62.6923Z" fill="white"/>
<path opacity="0.5" d="M126.774 77.9635C126.924 77.5029 127.576 77.5029 127.726 77.9635L128.204 79.4367C128.271 79.6427 128.463 79.7822 128.68 79.7822H130.229C130.713 79.7822 130.914 80.402 130.523 80.6867L129.269 81.5971C129.094 81.7245 129.021 81.9501 129.088 82.1562L129.566 83.6293C129.716 84.09 129.189 84.473 128.797 84.1883L127.544 83.2779C127.369 83.1505 127.131 83.1505 126.956 83.2779L125.703 84.1883C125.311 84.473 124.784 84.09 124.934 83.6293L125.412 82.1562C125.479 81.9501 125.406 81.7245 125.231 81.5971L123.977 80.6867C123.586 80.402 123.787 79.7822 124.271 79.7822H125.82C126.037 79.7822 126.229 79.6427 126.296 79.4367L126.774 77.9635Z" fill="white"/>
<path opacity="0.5" d="M104.774 77.9635C104.924 77.5029 105.576 77.5029 105.726 77.9635L106.204 79.4367C106.271 79.6427 106.463 79.7822 106.68 79.7822H108.229C108.713 79.7822 108.914 80.402 108.523 80.6867L107.269 81.5971C107.094 81.7245 107.021 81.9501 107.088 82.1562L107.566 83.6293C107.716 84.09 107.189 84.473 106.797 84.1883L105.544 83.2779C105.369 83.1505 105.131 83.1505 104.956 83.2779L103.703 84.1883C103.311 84.473 102.784 84.09 102.934 83.6293L103.412 82.1562C103.479 81.9501 103.406 81.7245 103.231 81.5971L101.977 80.6867C101.586 80.402 101.787 79.7822 102.271 79.7822H103.82C104.037 79.7822 104.229 79.6427 104.296 79.4367L104.774 77.9635Z" fill="white"/>
<path d="M115.774 72.9635C115.924 72.5029 116.576 72.5029 116.726 72.9635L117.878 76.5096C117.945 76.7156 118.137 76.8551 118.353 76.8551H122.082C122.566 76.8551 122.768 77.4749 122.376 77.7596L119.359 79.9512C119.184 80.0786 119.111 80.3042 119.178 80.5103L120.33 84.0564C120.479 84.517 119.952 84.9001 119.56 84.6154L116.544 82.4238C116.369 82.2964 116.131 82.2964 115.956 82.4238L112.94 84.6154C112.548 84.9001 112.021 84.517 112.17 84.0564L113.322 80.5103C113.389 80.3042 113.316 80.0786 113.141 79.9512L110.124 77.7596C109.732 77.4749 109.934 76.8551 110.418 76.8551H114.147C114.363 76.8551 114.555 76.7156 114.622 76.5096L115.774 72.9635Z" fill="white"/>
</svg>
