<svg width="163" height="143" viewBox="0 0 163 143" fill="none" xmlns="http://www.w3.org/2000/svg">
<mask id="mask0_190_1516" style="mask-type:alpha" maskUnits="userSpaceOnUse" x="0" y="0" width="163" height="143">
<path d="M0 48.2803C0 25.6529 0 14.3391 7.02944 7.30971C14.0589 0.280273 25.3726 0.280273 48 0.280273H115C137.627 0.280273 148.941 0.280273 155.971 7.30971C163 14.3391 163 25.6529 163 48.2803V142.28H0V48.2803Z" fill="#F5F4F0"/>
</mask>
<g mask="url(#mask0_190_1516)">
<rect x="-22" y="1" width="209" height="141" fill="#F1F1F1"/>
<rect x="25.6583" y="83.6583" width="107.683" height="43.6835" rx="9.87399" fill="white"/>
<rect x="25.6583" y="83.6583" width="107.683" height="43.6835" rx="9.87399" stroke="#EC006C" stroke-width="1.31653"/>
<path d="M62.5765 110.696C61.6245 110.696 60.7612 110.472 59.9865 110.024C59.2212 109.576 58.6192 108.965 58.1805 108.19C57.7419 107.406 57.5225 106.538 57.5225 105.586C57.5225 104.634 57.7419 103.771 58.1805 102.996C58.6192 102.212 59.2212 101.601 59.9865 101.162C60.7612 100.723 61.6245 100.504 62.5765 100.504C63.3792 100.504 64.1212 100.667 64.8025 100.994C65.4932 101.311 66.0532 101.759 66.4825 102.338C66.9212 102.907 67.1872 103.547 67.2805 104.256H65.0125C64.9192 103.92 64.7512 103.617 64.5085 103.346C64.2752 103.075 63.9859 102.865 63.6405 102.716C63.3045 102.557 62.9499 102.478 62.5765 102.478C62.0259 102.478 61.5265 102.609 61.0785 102.87C60.6399 103.131 60.2945 103.5 60.0425 103.976C59.7905 104.452 59.6645 104.989 59.6645 105.586C59.6645 106.193 59.7905 106.734 60.0425 107.21C60.2945 107.686 60.6399 108.059 61.0785 108.33C61.5265 108.591 62.0259 108.722 62.5765 108.722C62.9499 108.722 63.3045 108.643 63.6405 108.484C63.9859 108.316 64.2799 108.087 64.5225 107.798C64.7652 107.499 64.9285 107.163 65.0125 106.79H67.2945C67.1825 107.555 66.9025 108.237 66.4545 108.834C66.0159 109.422 65.4559 109.879 64.7745 110.206C64.1025 110.533 63.3699 110.696 62.5765 110.696ZM70.4585 110.696C69.9825 110.696 69.5579 110.607 69.1845 110.43C68.8205 110.253 68.5359 110.005 68.3305 109.688C68.1345 109.371 68.0365 109.007 68.0365 108.596C68.0365 108.12 68.1579 107.709 68.4005 107.364C68.6525 107.009 69.0212 106.739 69.5065 106.552C69.9919 106.356 70.5845 106.258 71.2845 106.258H72.2925V106.104C72.2925 105.777 72.1945 105.516 71.9985 105.32C71.8025 105.124 71.5365 105.026 71.2005 105.026C70.9952 105.026 70.8085 105.063 70.6405 105.138C70.4725 105.213 70.3325 105.32 70.2205 105.46C70.1179 105.6 70.0572 105.763 70.0385 105.95H68.0785C68.1065 105.455 68.2559 105.017 68.5265 104.634C68.7972 104.251 69.1659 103.957 69.6325 103.752C70.1085 103.537 70.6452 103.43 71.2425 103.43C71.8492 103.43 72.3812 103.551 72.8385 103.794C73.2959 104.027 73.6459 104.359 73.8885 104.788C74.1405 105.217 74.2665 105.717 74.2665 106.286V110.5H72.3485V109.842C72.1339 110.103 71.8632 110.313 71.5365 110.472C71.2099 110.621 70.8505 110.696 70.4585 110.696ZM70.8645 109.198C71.1352 109.198 71.3825 109.128 71.6065 108.988C71.8305 108.848 72.0079 108.661 72.1385 108.428C72.2692 108.195 72.3345 107.938 72.3345 107.658V107.588H71.3265C70.8785 107.588 70.5379 107.667 70.3045 107.826C70.0712 107.975 69.9545 108.185 69.9545 108.456C69.9545 108.68 70.0339 108.862 70.1925 109.002C70.3512 109.133 70.5752 109.198 70.8645 109.198ZM75.727 103.626H77.645V105.446L76.833 106.622C76.833 106.053 76.9497 105.525 77.183 105.04C77.4257 104.545 77.757 104.153 78.177 103.864C78.6064 103.575 79.0917 103.43 79.633 103.43C80.1464 103.43 80.599 103.556 80.991 103.808C81.3924 104.06 81.7004 104.424 81.915 104.9C82.1297 105.376 82.237 105.936 82.237 106.58V110.5H80.263V106.636C80.263 106.225 80.151 105.894 79.927 105.642C79.7124 105.381 79.4137 105.25 79.031 105.25C78.639 105.25 78.317 105.385 78.065 105.656C77.813 105.927 77.687 106.286 77.687 106.734V110.5H75.727V103.626ZM86.9461 110.696C86.2834 110.696 85.6721 110.537 85.1121 110.22C84.5614 109.903 84.1227 109.469 83.7961 108.918C83.4787 108.367 83.3201 107.751 83.3201 107.07C83.3201 106.389 83.4787 105.773 83.7961 105.222C84.1227 104.662 84.5614 104.223 85.1121 103.906C85.6721 103.589 86.2834 103.43 86.9461 103.43C87.5154 103.43 88.0427 103.551 88.5281 103.794C89.0227 104.037 89.4241 104.373 89.7321 104.802C90.0494 105.222 90.2361 105.698 90.2921 106.23H88.3181C88.2714 106.053 88.1781 105.889 88.0381 105.74C87.9074 105.591 87.7394 105.474 87.5341 105.39C87.3381 105.306 87.1281 105.264 86.9041 105.264C86.5961 105.264 86.3161 105.343 86.0641 105.502C85.8121 105.651 85.6114 105.866 85.4621 106.146C85.3221 106.417 85.2521 106.725 85.2521 107.07C85.2521 107.415 85.3221 107.723 85.4621 107.994C85.6114 108.265 85.8121 108.479 86.0641 108.638C86.3161 108.787 86.5961 108.862 86.9041 108.862C87.2401 108.862 87.5434 108.764 87.8141 108.568C88.0941 108.372 88.2667 108.125 88.3321 107.826H90.3061C90.2594 108.386 90.0774 108.885 89.7601 109.324C89.4521 109.753 89.0507 110.089 88.5561 110.332C88.0614 110.575 87.5247 110.696 86.9461 110.696ZM94.6003 110.696C93.9283 110.696 93.3217 110.542 92.7803 110.234C92.239 109.917 91.8143 109.487 91.5063 108.946C91.1983 108.405 91.0443 107.798 91.0443 107.126C91.0443 106.454 91.2077 105.833 91.5343 105.264C91.8703 104.695 92.3137 104.247 92.8643 103.92C93.4243 103.593 94.031 103.43 94.6843 103.43C95.319 103.43 95.893 103.579 96.4063 103.878C96.929 104.177 97.3397 104.583 97.6383 105.096C97.937 105.6 98.0863 106.165 98.0863 106.79C98.0863 107.051 98.0677 107.313 98.0303 107.574H92.1363V106.174H96.0843C96.0657 105.959 95.991 105.768 95.8603 105.6C95.739 105.423 95.571 105.283 95.3563 105.18C95.151 105.077 94.9223 105.026 94.6703 105.026C94.3437 105.026 94.045 105.11 93.7743 105.278C93.513 105.446 93.303 105.689 93.1443 106.006C92.995 106.314 92.9203 106.673 92.9203 107.084C92.9203 107.485 92.9997 107.835 93.1583 108.134C93.317 108.433 93.5317 108.661 93.8023 108.82C94.0823 108.979 94.3857 109.058 94.7123 109.058C95.0297 109.058 95.3143 108.988 95.5663 108.848C95.8183 108.699 95.9817 108.512 96.0563 108.288H97.9883C97.8857 108.736 97.6803 109.142 97.3723 109.506C97.0643 109.87 96.6723 110.159 96.1963 110.374C95.7203 110.589 95.1883 110.696 94.6003 110.696ZM101.23 110.5H99.2563V100.7H101.23V110.5Z" fill="#EC006C"/>
<g filter="url(#filter0_d_190_1516)">
<rect x="25.6583" y="28.6583" width="107.683" height="43.6835" rx="9.87399" fill="#FF2E6D" stroke="#EC006C" stroke-width="1.31653"/>
<path d="M44.1636 46.2H47.2436C47.8782 46.2 48.4429 46.3307 48.9376 46.592C49.4322 46.844 49.8149 47.1847 50.0856 47.614C50.3656 48.0433 50.5056 48.51 50.5056 49.014C50.5056 49.5833 50.3609 50.0873 50.0716 50.526C49.7916 50.9647 49.4042 51.3053 48.9096 51.548C48.4149 51.7907 47.8596 51.912 47.2436 51.912L47.2856 50.82C47.9762 50.82 48.5596 50.9413 49.0356 51.184C49.5116 51.4173 49.8709 51.7487 50.1136 52.178C50.3656 52.598 50.4916 53.088 50.4916 53.648V56H48.4196V53.9C48.4196 53.368 48.2936 52.9853 48.0416 52.752C47.7989 52.5187 47.3976 52.402 46.8376 52.402H46.2216V56H44.1636V46.2ZM47.1176 50.554C47.3789 50.554 47.6029 50.5073 47.7896 50.414C47.9856 50.3113 48.1396 50.1713 48.2516 49.994C48.3636 49.8073 48.4196 49.5927 48.4196 49.35C48.4196 48.986 48.2982 48.6967 48.0556 48.482C47.8222 48.258 47.5096 48.146 47.1176 48.146H46.2216V50.554H47.1176ZM55.0359 56.196C54.3639 56.196 53.7572 56.042 53.2159 55.734C52.6746 55.4167 52.2499 54.9873 51.9419 54.446C51.6339 53.9047 51.4799 53.298 51.4799 52.626C51.4799 51.954 51.6432 51.3333 51.9699 50.764C52.3059 50.1947 52.7492 49.7467 53.2999 49.42C53.8599 49.0933 54.4666 48.93 55.1199 48.93C55.7546 48.93 56.3286 49.0793 56.8419 49.378C57.3646 49.6767 57.7752 50.0827 58.0739 50.596C58.3726 51.1 58.5219 51.6647 58.5219 52.29C58.5219 52.5513 58.5032 52.8127 58.4659 53.074H52.5719V51.674H56.5199C56.5012 51.4593 56.4266 51.268 56.2959 51.1C56.1746 50.9227 56.0066 50.7827 55.7919 50.68C55.5866 50.5773 55.3579 50.526 55.1059 50.526C54.7792 50.526 54.4806 50.61 54.2099 50.778C53.9486 50.946 53.7386 51.1887 53.5799 51.506C53.4306 51.814 53.3559 52.1733 53.3559 52.584C53.3559 52.9853 53.4352 53.3353 53.5939 53.634C53.7526 53.9327 53.9672 54.1613 54.2379 54.32C54.5179 54.4787 54.8212 54.558 55.1479 54.558C55.4652 54.558 55.7499 54.488 56.0019 54.348C56.2539 54.1987 56.4172 54.012 56.4919 53.788H58.4239C58.3212 54.236 58.1159 54.642 57.8079 55.006C57.4999 55.37 57.1079 55.6593 56.6319 55.874C56.1559 56.0887 55.6239 56.196 55.0359 56.196ZM62.2959 56.196C61.7265 56.196 61.2225 56.1027 60.7839 55.916C60.3452 55.7293 59.9999 55.4633 59.7479 55.118C59.4959 54.7633 59.3559 54.3433 59.3279 53.858H61.1899C61.2085 54.1007 61.3159 54.2967 61.5119 54.446C61.7172 54.5953 61.9832 54.67 62.3099 54.67C62.6085 54.67 62.8372 54.614 62.9959 54.502C63.1639 54.3807 63.2479 54.2267 63.2479 54.04C63.2479 53.8907 63.1919 53.7693 63.0799 53.676C62.9772 53.5827 62.8279 53.5127 62.6319 53.466C62.4452 53.41 62.2259 53.354 61.9739 53.298C61.4699 53.1953 61.0452 53.0833 60.6999 52.962C60.3545 52.8407 60.0559 52.64 59.8039 52.36C59.5519 52.0707 59.4259 51.6787 59.4259 51.184C59.4259 50.7547 59.5379 50.3673 59.7619 50.022C59.9859 49.6767 60.3032 49.4107 60.7139 49.224C61.1245 49.028 61.5959 48.93 62.1279 48.93C62.9399 48.93 63.6072 49.1213 64.1299 49.504C64.6619 49.8773 64.9652 50.414 65.0399 51.114H63.1359C63.0985 50.9087 62.9819 50.7407 62.7859 50.61C62.5899 50.47 62.3659 50.4 62.1139 50.4C61.8619 50.4 61.6565 50.4513 61.4979 50.554C61.3392 50.6567 61.2599 50.8013 61.2599 50.988C61.2599 51.128 61.3112 51.24 61.4139 51.324C61.5259 51.408 61.6705 51.4733 61.8479 51.52C62.0345 51.5667 62.2539 51.618 62.5059 51.674C63.0285 51.7767 63.4672 51.8887 63.8219 52.01C64.1765 52.1313 64.4845 52.3367 64.7459 52.626C65.0165 52.9153 65.1519 53.312 65.1519 53.816C65.1519 54.2733 65.0305 54.684 64.7879 55.048C64.5452 55.412 64.2045 55.6967 63.7659 55.902C63.3365 56.098 62.8465 56.196 62.2959 56.196ZM69.5847 56.196C68.9221 56.196 68.3107 56.0373 67.7507 55.72C67.2001 55.4027 66.7614 54.9687 66.4347 54.418C66.1174 53.8673 65.9587 53.2513 65.9587 52.57C65.9587 51.8887 66.1174 51.2727 66.4347 50.722C66.7614 50.162 67.2001 49.7233 67.7507 49.406C68.3107 49.0887 68.9221 48.93 69.5847 48.93C70.1541 48.93 70.6814 49.0513 71.1667 49.294C71.6614 49.5367 72.0627 49.8727 72.3707 50.302C72.6881 50.722 72.8747 51.198 72.9307 51.73H70.9567C70.9101 51.5527 70.8167 51.3893 70.6767 51.24C70.5461 51.0907 70.3781 50.974 70.1727 50.89C69.9767 50.806 69.7667 50.764 69.5427 50.764C69.2347 50.764 68.9547 50.8433 68.7027 51.002C68.4507 51.1513 68.2501 51.366 68.1007 51.646C67.9607 51.9167 67.8907 52.2247 67.8907 52.57C67.8907 52.9153 67.9607 53.2233 68.1007 53.494C68.2501 53.7647 68.4507 53.9793 68.7027 54.138C68.9547 54.2873 69.2347 54.362 69.5427 54.362C69.8787 54.362 70.1821 54.264 70.4527 54.068C70.7327 53.872 70.9054 53.6247 70.9707 53.326H72.9447C72.8981 53.886 72.7161 54.3853 72.3987 54.824C72.0907 55.2533 71.6894 55.5893 71.1947 55.832C70.7001 56.0747 70.1634 56.196 69.5847 56.196ZM74.061 46.2H75.979V50.946L75.167 52.122C75.167 51.5527 75.2837 51.0253 75.517 50.54C75.7597 50.0453 76.091 49.6533 76.511 49.364C76.9403 49.0747 77.4257 48.93 77.967 48.93C78.4803 48.93 78.933 49.056 79.325 49.308C79.7263 49.56 80.0343 49.924 80.249 50.4C80.4637 50.876 80.571 51.436 80.571 52.08V56H78.597V52.136C78.597 51.7253 78.485 51.394 78.261 51.142C78.0463 50.8807 77.7477 50.75 77.365 50.75C76.973 50.75 76.651 50.8853 76.399 51.156C76.147 51.4267 76.021 51.786 76.021 52.234V56H74.061V46.2ZM85.196 56.196C84.524 56.196 83.9174 56.042 83.376 55.734C82.8347 55.4167 82.41 54.9873 82.102 54.446C81.794 53.9047 81.64 53.298 81.64 52.626C81.64 51.954 81.8034 51.3333 82.13 50.764C82.466 50.1947 82.9094 49.7467 83.46 49.42C84.02 49.0933 84.6267 48.93 85.28 48.93C85.9147 48.93 86.4887 49.0793 87.002 49.378C87.5247 49.6767 87.9354 50.0827 88.234 50.596C88.5327 51.1 88.682 51.6647 88.682 52.29C88.682 52.5513 88.6634 52.8127 88.626 53.074H82.732V51.674H86.68C86.6614 51.4593 86.5867 51.268 86.456 51.1C86.3347 50.9227 86.1667 50.7827 85.952 50.68C85.7467 50.5773 85.518 50.526 85.266 50.526C84.9394 50.526 84.6407 50.61 84.37 50.778C84.1087 50.946 83.8987 51.1887 83.74 51.506C83.5907 51.814 83.516 52.1733 83.516 52.584C83.516 52.9853 83.5954 53.3353 83.754 53.634C83.9127 53.9327 84.1274 54.1613 84.398 54.32C84.678 54.4787 84.9814 54.558 85.308 54.558C85.6254 54.558 85.91 54.488 86.162 54.348C86.414 54.1987 86.5774 54.012 86.652 53.788H88.584C88.4814 54.236 88.276 54.642 87.968 55.006C87.66 55.37 87.268 55.6593 86.792 55.874C86.316 56.0887 85.784 56.196 85.196 56.196ZM92.89 56.196C92.2554 56.196 91.6767 56.042 91.154 55.734C90.6407 55.4167 90.2347 54.9873 89.936 54.446C89.6374 53.9047 89.488 53.2887 89.488 52.598C89.488 51.898 89.6327 51.2727 89.922 50.722C90.2207 50.162 90.6267 49.7233 91.14 49.406C91.6627 49.0887 92.2367 48.93 92.862 48.93C93.2634 48.93 93.6367 49 93.982 49.14C94.3367 49.2707 94.6494 49.462 94.92 49.714V46.2H96.908V56H94.962V55.384C94.682 55.6453 94.3647 55.846 94.01 55.986C93.6554 56.126 93.282 56.196 92.89 56.196ZM91.406 52.556C91.406 52.892 91.4854 53.1953 91.644 53.466C91.8027 53.7367 92.0174 53.9513 92.288 54.11C92.5587 54.2593 92.8527 54.334 93.17 54.334C93.4874 54.334 93.7814 54.2593 94.052 54.11C94.3227 53.9607 94.5327 53.7507 94.682 53.48C94.8407 53.2093 94.92 52.9013 94.92 52.556C94.92 52.22 94.8407 51.9167 94.682 51.646C94.5327 51.3753 94.3227 51.1653 94.052 51.016C93.7814 50.8573 93.4874 50.778 93.17 50.778C92.8527 50.778 92.5587 50.8573 92.288 51.016C92.0174 51.1747 91.8027 51.3893 91.644 51.66C91.4854 51.9307 91.406 52.2293 91.406 52.556ZM104.878 56H102.96V54.18L103.772 53.004C103.772 53.5733 103.65 54.1053 103.408 54.6C103.174 55.0853 102.843 55.4727 102.414 55.762C101.994 56.0513 101.513 56.196 100.972 56.196C100.458 56.196 100.001 56.07 99.5996 55.818C99.2076 55.566 98.9043 55.202 98.6896 54.726C98.475 54.25 98.3676 53.69 98.3676 53.046V49.126H100.342V52.99C100.342 53.4007 100.449 53.7367 100.664 53.998C100.888 54.25 101.191 54.376 101.574 54.376C101.966 54.376 102.288 54.2407 102.54 53.97C102.792 53.6993 102.918 53.34 102.918 52.892V49.126H104.878V56ZM108.396 56H106.422V46.2H108.396V56ZM113.114 56.196C112.442 56.196 111.835 56.042 111.294 55.734C110.753 55.4167 110.328 54.9873 110.02 54.446C109.712 53.9047 109.558 53.298 109.558 52.626C109.558 51.954 109.721 51.3333 110.048 50.764C110.384 50.1947 110.827 49.7467 111.378 49.42C111.938 49.0933 112.545 48.93 113.198 48.93C113.833 48.93 114.407 49.0793 114.92 49.378C115.443 49.6767 115.853 50.0827 116.152 50.596C116.451 51.1 116.6 51.6647 116.6 52.29C116.6 52.5513 116.581 52.8127 116.544 53.074H110.65V51.674H114.598C114.579 51.4593 114.505 51.268 114.374 51.1C114.253 50.9227 114.085 50.7827 113.87 50.68C113.665 50.5773 113.436 50.526 113.184 50.526C112.857 50.526 112.559 50.61 112.288 50.778C112.027 50.946 111.817 51.1887 111.658 51.506C111.509 51.814 111.434 52.1733 111.434 52.584C111.434 52.9853 111.513 53.3353 111.672 53.634C111.831 53.9327 112.045 54.1613 112.316 54.32C112.596 54.4787 112.899 54.558 113.226 54.558C113.543 54.558 113.828 54.488 114.08 54.348C114.332 54.1987 114.495 54.012 114.57 53.788H116.502C116.399 54.236 116.194 54.642 115.886 55.006C115.578 55.37 115.186 55.6593 114.71 55.874C114.234 56.0887 113.702 56.196 113.114 56.196Z" fill="white"/>
</g>
</g>
<defs>
<filter id="filter0_d_190_1516" x="-9" y="28" width="177" height="113" filterUnits="userSpaceOnUse" color-interpolation-filters="sRGB">
<feFlood flood-opacity="0" result="BackgroundImageFix"/>
<feColorMatrix in="SourceAlpha" type="matrix" values="0 0 0 0 0 0 0 0 0 0 0 0 0 0 0 0 0 0 127 0" result="hardAlpha"/>
<feOffset dy="34"/>
<feGaussianBlur stdDeviation="17"/>
<feComposite in2="hardAlpha" operator="out"/>
<feColorMatrix type="matrix" values="0 0 0 0 0 0 0 0 0 0 0 0 0 0 0 0 0 0 0.28 0"/>
<feBlend mode="normal" in2="BackgroundImageFix" result="effect1_dropShadow_190_1516"/>
<feBlend mode="normal" in="SourceGraphic" in2="effect1_dropShadow_190_1516" result="shape"/>
</filter>
</defs>
</svg>
