<svg width="262" height="114" viewBox="0 0 262 114" fill="none" xmlns="http://www.w3.org/2000/svg">
<rect x="34.6583" y="56.605" width="192.683" height="43.6835" rx="9.87399" fill="white"/>
<rect x="34.6583" y="56.605" width="192.683" height="43.6835" rx="9.87399" stroke="#EC006C" stroke-width="1.31653"/>
<path d="M110.305 84.6864C109.141 84.6864 108.086 84.4125 107.139 83.8649C106.203 83.3172 105.467 82.5698 104.931 81.6228C104.395 80.6644 104.127 79.6033 104.127 78.4394C104.127 77.2756 104.395 76.2202 104.931 75.2732C105.467 74.3147 106.203 73.5674 107.139 73.0311C108.086 72.4949 109.141 72.2267 110.305 72.2267C111.286 72.2267 112.193 72.4264 113.026 72.8257C113.871 73.2137 114.555 73.7614 115.08 74.4688C115.616 75.1648 115.942 75.9464 116.056 76.8135H113.283C113.169 76.4028 112.964 76.0319 112.667 75.7011C112.382 75.3702 112.028 75.1134 111.606 74.9309C111.195 74.7369 110.761 74.6399 110.305 74.6399C109.632 74.6399 109.021 74.7997 108.474 75.1191C107.937 75.4386 107.515 75.8893 107.207 76.4712C106.899 77.0531 106.745 77.7092 106.745 78.4394C106.745 79.1811 106.899 79.8429 107.207 80.4248C107.515 81.0067 107.937 81.4631 108.474 81.794C109.021 82.1134 109.632 82.2732 110.305 82.2732C110.761 82.2732 111.195 82.1762 111.606 81.9822C112.028 81.7768 112.387 81.4973 112.684 81.1436C112.981 80.7785 113.18 80.3677 113.283 79.9113H116.073C115.936 80.8469 115.594 81.6799 115.046 82.4101C114.51 83.1289 113.825 83.688 112.992 84.0874C112.171 84.4867 111.275 84.6864 110.305 84.6864ZM119.941 84.6864C119.359 84.6864 118.84 84.578 118.383 84.3612C117.938 84.1444 117.59 83.8421 117.339 83.4541C117.1 83.0662 116.98 82.6212 116.98 82.1191C116.98 81.5372 117.128 81.0352 117.425 80.613C117.733 80.1795 118.184 79.8486 118.777 79.6204C119.37 79.3808 120.095 79.261 120.951 79.261H122.183V79.0727C122.183 78.6733 122.063 78.3539 121.823 78.1143C121.584 77.8746 121.259 77.7548 120.848 77.7548C120.597 77.7548 120.369 77.8005 120.163 77.8918C119.958 77.983 119.787 78.1143 119.65 78.2854C119.524 78.4566 119.45 78.6562 119.427 78.8844H117.031C117.065 78.2797 117.248 77.7434 117.579 77.2756C117.91 76.8078 118.36 76.4484 118.931 76.1974C119.513 75.935 120.169 75.8037 120.899 75.8037C121.641 75.8037 122.291 75.9521 122.85 76.2487C123.409 76.534 123.837 76.939 124.134 77.4639C124.442 77.9887 124.596 78.5992 124.596 79.2952V84.4468H122.251V83.6424C121.989 83.9619 121.658 84.2186 121.259 84.4125C120.859 84.5951 120.42 84.6864 119.941 84.6864ZM120.437 82.8551C120.768 82.8551 121.07 82.7695 121.344 82.5984C121.618 82.4272 121.835 82.199 121.995 81.9138C122.154 81.6285 122.234 81.3147 122.234 80.9724V80.8869H121.002C120.454 80.8869 120.038 80.9839 119.752 81.1778C119.467 81.3604 119.325 81.6171 119.325 81.948C119.325 82.2218 119.422 82.4443 119.616 82.6155C119.81 82.7752 120.083 82.8551 120.437 82.8551ZM126.381 76.0434H128.726V78.2683L127.734 79.7059C127.734 79.0099 127.876 78.3653 128.161 77.772C128.458 77.1672 128.863 76.688 129.377 76.3343C129.901 75.9806 130.495 75.8037 131.157 75.8037C131.784 75.8037 132.337 75.9578 132.817 76.2658C133.307 76.5739 133.684 77.0189 133.946 77.6008C134.209 78.1827 134.34 78.8673 134.34 79.6546V84.4468H131.927V79.7231C131.927 79.221 131.79 78.816 131.516 78.5079C131.253 78.1884 130.888 78.0287 130.421 78.0287C129.941 78.0287 129.548 78.1941 129.24 78.525C128.932 78.8559 128.778 79.2952 128.778 79.8429V84.4468H126.381V76.0434ZM140.097 84.6864C139.287 84.6864 138.539 84.4924 137.855 84.1045C137.181 83.7165 136.645 83.186 136.246 82.5128C135.858 81.8396 135.664 81.0865 135.664 80.2536C135.664 79.4207 135.858 78.6676 136.246 77.9945C136.645 77.3099 137.181 76.7736 137.855 76.3856C138.539 75.9977 139.287 75.8037 140.097 75.8037C140.793 75.8037 141.437 75.9521 142.031 76.2487C142.635 76.5454 143.126 76.9561 143.503 77.481C143.89 77.9945 144.119 78.5764 144.187 79.2267H141.774C141.717 79.0099 141.603 78.8103 141.432 78.6277C141.272 78.4451 141.066 78.3025 140.815 78.1998C140.576 78.0971 140.319 78.0458 140.045 78.0458C139.669 78.0458 139.326 78.1428 139.018 78.3367C138.71 78.5193 138.465 78.7817 138.282 79.124C138.111 79.4549 138.026 79.8315 138.026 80.2536C138.026 80.6758 138.111 81.0523 138.282 81.3832C138.465 81.7141 138.71 81.9765 139.018 82.1705C139.326 82.3531 139.669 82.4443 140.045 82.4443C140.456 82.4443 140.827 82.3245 141.158 82.0849C141.5 81.8453 141.711 81.5429 141.791 81.1778H144.204C144.147 81.8624 143.925 82.4729 143.537 83.0091C143.16 83.534 142.67 83.9447 142.065 84.2414C141.46 84.5381 140.804 84.6864 140.097 84.6864ZM149.454 84.6864C148.632 84.6864 147.891 84.4981 147.229 84.1216C146.567 83.7337 146.048 83.2088 145.672 82.547C145.295 81.8852 145.107 81.1436 145.107 80.3221C145.107 79.5006 145.306 78.7418 145.706 78.0458C146.117 77.3498 146.659 76.8021 147.332 76.4028C148.016 76.0034 148.758 75.8037 149.557 75.8037C150.333 75.8037 151.034 75.9863 151.662 76.3514C152.301 76.7165 152.803 77.2129 153.168 77.8404C153.533 78.4566 153.716 79.1469 153.716 79.9113C153.716 80.2308 153.693 80.5503 153.647 80.8698H146.442V79.1583H151.268C151.245 78.8958 151.154 78.6619 150.994 78.4566C150.846 78.2398 150.641 78.0686 150.378 77.9431C150.127 77.8176 149.848 77.7548 149.54 77.7548C149.14 77.7548 148.775 77.8575 148.444 78.0629C148.125 78.2683 147.868 78.5649 147.674 78.9529C147.491 79.3294 147.4 79.7687 147.4 80.2707C147.4 80.7614 147.497 81.1892 147.691 81.5544C147.885 81.9195 148.148 82.199 148.478 82.393C148.821 82.587 149.192 82.6839 149.591 82.6839C149.979 82.6839 150.327 82.5984 150.635 82.4272C150.943 82.2447 151.143 82.0165 151.234 81.7426H153.596C153.47 82.2903 153.219 82.7866 152.843 83.2316C152.466 83.6766 151.987 84.0303 151.405 84.2927C150.823 84.5552 150.173 84.6864 149.454 84.6864ZM157.559 84.4468H155.146V72.4663H157.559V84.4468Z" fill="#EC006C"/>
<g filter="url(#filter0_d_105_634)">
<rect x="34.6583" y="1.60504" width="192.683" height="43.6835" rx="9.87399" fill="#FF2E6D" stroke="#EC006C" stroke-width="1.31653"/>
<path d="M90.9579 17.9663H94.7232C95.499 17.9663 96.1893 18.1261 96.7941 18.4455C97.3988 18.7536 97.8666 19.1701 98.1975 19.6949C98.5398 20.2198 98.7109 20.7903 98.7109 21.4064C98.7109 22.1024 98.5341 22.7186 98.1804 23.2548C97.8381 23.7911 97.3646 24.2076 96.7598 24.5042C96.1551 24.8009 95.4762 24.9492 94.7232 24.9492L94.7745 23.6143C95.6188 23.6143 96.332 23.7626 96.9139 24.0592C97.4958 24.3445 97.9351 24.7495 98.2317 25.2744C98.5398 25.7879 98.6938 26.3869 98.6938 27.0715V29.9468H96.1608V27.3795C96.1608 26.7292 96.0068 26.2614 95.6987 25.9761C95.4021 25.6909 94.9114 25.5482 94.2268 25.5482H93.4738V29.9468H90.9579V17.9663ZM94.5691 23.2891C94.8886 23.2891 95.1624 23.232 95.3906 23.1179C95.6303 22.9924 95.8185 22.8213 95.9554 22.6045C96.0924 22.3763 96.1608 22.1138 96.1608 21.8172C96.1608 21.3722 96.0125 21.0185 95.7158 20.7561C95.4306 20.4822 95.0483 20.3453 94.5691 20.3453H93.4738V23.2891H94.5691ZM104.249 30.1864C103.428 30.1864 102.686 29.9981 102.024 29.6216C101.363 29.2337 100.843 28.7088 100.467 28.047C100.09 27.3852 99.902 26.6436 99.902 25.8221C99.902 25.0006 100.102 24.2418 100.501 23.5458C100.912 22.8498 101.454 22.3021 102.127 21.9028C102.812 21.5034 103.553 21.3037 104.352 21.3037C105.128 21.3037 105.83 21.4863 106.457 21.8514C107.096 22.2165 107.598 22.7129 107.963 23.3404C108.328 23.9566 108.511 24.6469 108.511 25.4113C108.511 25.7308 108.488 26.0503 108.442 26.3698H101.237V24.6583H106.063C106.041 24.3958 105.949 24.1619 105.79 23.9566C105.641 23.7398 105.436 23.5686 105.173 23.4431C104.922 23.3176 104.643 23.2548 104.335 23.2548C103.935 23.2548 103.57 23.3575 103.239 23.5629C102.92 23.7683 102.663 24.0649 102.469 24.4529C102.287 24.8294 102.195 25.2687 102.195 25.7707C102.195 26.2614 102.292 26.6892 102.486 27.0544C102.68 27.4195 102.943 27.699 103.274 27.893C103.616 28.087 103.987 28.1839 104.386 28.1839C104.774 28.1839 105.122 28.0984 105.43 27.9272C105.738 27.7447 105.938 27.5165 106.029 27.2426H108.391C108.266 27.7903 108.015 28.2866 107.638 28.7316C107.261 29.1766 106.782 29.5303 106.2 29.7927C105.618 30.0552 104.968 30.1864 104.249 30.1864ZM113.125 30.1864C112.429 30.1864 111.812 30.0723 111.276 29.8441C110.74 29.6159 110.318 29.2907 110.01 28.8685C109.702 28.435 109.53 27.9215 109.496 27.3282H111.772C111.795 27.6249 111.926 27.8645 112.166 28.047C112.417 28.2296 112.742 28.3209 113.142 28.3209C113.507 28.3209 113.786 28.2524 113.98 28.1155C114.186 27.9672 114.288 27.7789 114.288 27.5507C114.288 27.3681 114.22 27.2198 114.083 27.1057C113.957 26.9916 113.775 26.906 113.535 26.849C113.307 26.7805 113.039 26.7121 112.731 26.6436C112.115 26.5181 111.596 26.3812 111.173 26.2328C110.751 26.0845 110.386 25.8392 110.078 25.4969C109.77 25.1432 109.616 24.664 109.616 24.0592C109.616 23.5344 109.753 23.0609 110.027 22.6387C110.301 22.2165 110.688 21.8914 111.191 21.6632C111.693 21.4235 112.269 21.3037 112.919 21.3037C113.912 21.3037 114.728 21.5376 115.367 22.0055C116.017 22.4619 116.388 23.1179 116.479 23.9737H114.151C114.106 23.7227 113.963 23.5173 113.724 23.3575C113.484 23.1864 113.21 23.1008 112.902 23.1008C112.594 23.1008 112.343 23.1636 112.149 23.2891C111.955 23.4146 111.858 23.5914 111.858 23.8196C111.858 23.9908 111.921 24.1277 112.046 24.2304C112.183 24.3331 112.36 24.413 112.577 24.47C112.805 24.5271 113.073 24.5898 113.381 24.6583C114.02 24.7838 114.556 24.9207 114.99 25.069C115.424 25.2174 115.8 25.4684 116.12 25.8221C116.451 26.1758 116.616 26.6607 116.616 27.2768C116.616 27.8359 116.468 28.338 116.171 28.783C115.874 29.228 115.458 29.576 114.922 29.827C114.397 30.0666 113.798 30.1864 113.125 30.1864ZM122.035 30.1864C121.225 30.1864 120.478 29.9924 119.793 29.6045C119.12 29.2165 118.584 28.686 118.184 28.0128C117.796 27.3396 117.602 26.5865 117.602 25.7536C117.602 24.9207 117.796 24.1676 118.184 23.4945C118.584 22.8099 119.12 22.2736 119.793 21.8856C120.478 21.4977 121.225 21.3037 122.035 21.3037C122.731 21.3037 123.376 21.4521 123.969 21.7487C124.574 22.0454 125.064 22.4561 125.441 22.981C125.829 23.4945 126.057 24.0764 126.126 24.7267H123.712C123.655 24.5099 123.541 24.3103 123.37 24.1277C123.21 23.9451 123.005 23.8025 122.754 23.6998C122.514 23.5971 122.258 23.5458 121.984 23.5458C121.607 23.5458 121.265 23.6428 120.957 23.8367C120.649 24.0193 120.403 24.2817 120.221 24.624C120.05 24.9549 119.964 25.3315 119.964 25.7536C119.964 26.1758 120.05 26.5523 120.221 26.8832C120.403 27.2141 120.649 27.4765 120.957 27.6705C121.265 27.8531 121.607 27.9443 121.984 27.9443C122.395 27.9443 122.765 27.8245 123.096 27.5849C123.439 27.3453 123.65 27.0429 123.729 26.6778H126.143C126.086 27.3624 125.863 27.9729 125.475 28.5091C125.099 29.034 124.608 29.4447 124.003 29.7414C123.399 30.0381 122.743 30.1864 122.035 30.1864ZM127.507 17.9663H129.852V23.7683L128.859 25.2059C128.859 24.5099 129.002 23.8653 129.287 23.272C129.584 22.6672 129.989 22.188 130.502 21.8343C131.027 21.4806 131.621 21.3037 132.282 21.3037C132.91 21.3037 133.463 21.4578 133.943 21.7658C134.433 22.0739 134.81 22.5189 135.072 23.1008C135.335 23.6827 135.466 24.3673 135.466 25.1546V29.9468H133.053V25.2231C133.053 24.721 132.916 24.316 132.642 24.0079C132.379 23.6884 132.014 23.5287 131.546 23.5287C131.067 23.5287 130.674 23.6941 130.366 24.025C130.057 24.3559 129.903 24.7952 129.903 25.3429V29.9468H127.507V17.9663ZM141.12 30.1864C140.298 30.1864 139.557 29.9981 138.895 29.6216C138.233 29.2337 137.714 28.7088 137.337 28.047C136.961 27.3852 136.773 26.6436 136.773 25.8221C136.773 25.0006 136.972 24.2418 137.372 23.5458C137.782 22.8498 138.324 22.3021 138.998 21.9028C139.682 21.5034 140.424 21.3037 141.223 21.3037C141.998 21.3037 142.7 21.4863 143.328 21.8514C143.967 22.2165 144.469 22.7129 144.834 23.3404C145.199 23.9566 145.381 24.6469 145.381 25.4113C145.381 25.7308 145.359 26.0503 145.313 26.3698H138.108V24.6583H142.934C142.911 24.3958 142.82 24.1619 142.66 23.9566C142.512 23.7398 142.306 23.5686 142.044 23.4431C141.793 23.3176 141.513 23.2548 141.205 23.2548C140.806 23.2548 140.441 23.3575 140.11 23.5629C139.791 23.7683 139.534 24.0649 139.34 24.4529C139.157 24.8294 139.066 25.2687 139.066 25.7707C139.066 26.2614 139.163 26.6892 139.357 27.0544C139.551 27.4195 139.813 27.699 140.144 27.893C140.487 28.087 140.857 28.1839 141.257 28.1839C141.645 28.1839 141.993 28.0984 142.301 27.9272C142.609 27.7447 142.809 27.5165 142.9 27.2426H145.262C145.136 27.7903 144.885 28.2866 144.509 28.7316C144.132 29.1766 143.653 29.5303 143.071 29.7927C142.489 30.0552 141.839 30.1864 141.12 30.1864ZM150.526 30.1864C149.75 30.1864 149.042 29.9981 148.403 29.6216C147.776 29.2337 147.28 28.7088 146.914 28.047C146.549 27.3852 146.367 26.6322 146.367 25.7879C146.367 24.9321 146.544 24.1676 146.897 23.4945C147.262 22.8099 147.759 22.2736 148.386 21.8856C149.025 21.4977 149.727 21.3037 150.491 21.3037C150.982 21.3037 151.438 21.3893 151.861 21.5605C152.294 21.7202 152.676 21.9541 153.007 22.2622V17.9663H155.438V29.9468H153.059V29.1937C152.716 29.5132 152.328 29.7585 151.895 29.9297C151.461 30.1008 151.005 30.1864 150.526 30.1864ZM148.712 25.7365C148.712 26.1473 148.808 26.5181 149.002 26.849C149.196 27.1799 149.459 27.4423 149.79 27.6363C150.121 27.8188 150.48 27.9101 150.868 27.9101C151.256 27.9101 151.615 27.8188 151.946 27.6363C152.277 27.4537 152.534 27.197 152.716 26.8661C152.91 26.5352 153.007 26.1587 153.007 25.7365C153.007 25.3257 152.91 24.9549 152.716 24.624C152.534 24.2931 152.277 24.0364 151.946 23.8539C151.615 23.6599 151.256 23.5629 150.868 23.5629C150.48 23.5629 150.121 23.6599 149.79 23.8539C149.459 24.0478 149.196 24.3103 149.002 24.6412C148.808 24.972 148.712 25.3372 148.712 25.7365ZM165.18 29.9468H162.836V27.7218L163.828 26.2842C163.828 26.9802 163.68 27.6306 163.383 28.2353C163.098 28.8286 162.693 29.3021 162.168 29.6558C161.655 30.0095 161.067 30.1864 160.405 30.1864C159.778 30.1864 159.219 30.0324 158.728 29.7243C158.249 29.4162 157.878 28.9712 157.616 28.3893C157.353 27.8074 157.222 27.1228 157.222 26.3355V21.5434H159.635V26.2671C159.635 26.7691 159.766 27.1799 160.029 27.4993C160.303 27.8074 160.674 27.9614 161.141 27.9614C161.621 27.9614 162.014 27.796 162.322 27.4651C162.63 27.1342 162.784 26.6949 162.784 26.1473V21.5434H165.18V29.9468ZM169.482 29.9468H167.069V17.9663H169.482V29.9468ZM175.249 30.1864C174.428 30.1864 173.686 29.9981 173.024 29.6216C172.363 29.2337 171.844 28.7088 171.467 28.047C171.09 27.3852 170.902 26.6436 170.902 25.8221C170.902 25.0006 171.102 24.2418 171.501 23.5458C171.912 22.8498 172.454 22.3021 173.127 21.9028C173.812 21.5034 174.553 21.3037 175.352 21.3037C176.128 21.3037 176.83 21.4863 177.457 21.8514C178.096 22.2165 178.598 22.7129 178.963 23.3404C179.328 23.9566 179.511 24.6469 179.511 25.4113C179.511 25.7308 179.488 26.0503 179.443 26.3698H172.237V24.6583H177.064C177.041 24.3958 176.949 24.1619 176.79 23.9566C176.641 23.7398 176.436 23.5686 176.174 23.4431C175.923 23.3176 175.643 23.2548 175.335 23.2548C174.936 23.2548 174.571 23.3575 174.24 23.5629C173.92 23.7683 173.663 24.0649 173.469 24.4529C173.287 24.8294 173.196 25.2687 173.196 25.7707C173.196 26.2614 173.293 26.6892 173.487 27.0544C173.681 27.4195 173.943 27.699 174.274 27.893C174.616 28.087 174.987 28.1839 175.386 28.1839C175.774 28.1839 176.122 28.0984 176.43 27.9272C176.738 27.7447 176.938 27.5165 177.029 27.2426H179.391C179.266 27.7903 179.015 28.2866 178.638 28.7316C178.262 29.1766 177.782 29.5303 177.201 29.7927C176.619 30.0552 175.968 30.1864 175.249 30.1864Z" fill="white"/>
</g>
<defs>
<filter id="filter0_d_105_634" x="0" y="0.946777" width="262" height="113" filterUnits="userSpaceOnUse" color-interpolation-filters="sRGB">
<feFlood flood-opacity="0" result="BackgroundImageFix"/>
<feColorMatrix in="SourceAlpha" type="matrix" values="0 0 0 0 0 0 0 0 0 0 0 0 0 0 0 0 0 0 127 0" result="hardAlpha"/>
<feOffset dy="34"/>
<feGaussianBlur stdDeviation="17"/>
<feComposite in2="hardAlpha" operator="out"/>
<feColorMatrix type="matrix" values="0 0 0 0 0 0 0 0 0 0 0 0 0 0 0 0 0 0 0.28 0"/>
<feBlend mode="normal" in2="BackgroundImageFix" result="effect1_dropShadow_105_634"/>
<feBlend mode="normal" in="SourceGraphic" in2="effect1_dropShadow_105_634" result="shape"/>
</filter>
</defs>
</svg>
