<svg width="100" height="28" viewBox="0 0 792 167" fill="none" xmlns="http://www.w3.org/2000/svg">
<g clip-path="url(#clip0_607_4095)">
<mask id="mask0_607_4095" style="mask-type:luminance" maskUnits="userSpaceOnUse" x="0" y="0" width="792" height="167">
<path d="M791.13 0H0V166.92H791.13V0Z" fill="white"/>
</mask>
<g mask="url(#mask0_607_4095)">
<path d="M50.0499 60.6999C36.8799 52.3799 42.5199 38.6199 57.2399 37.4999C71.1999 36.4399 81.1799 43.0599 86.8199 55.5399L120.97 45.4899C111 13.0299 75.5999 -4.64015 43.0099 4.29985C16.3699 11.5999 1.42994 35.0999 7.75994 62.4999C14.6399 92.2999 47.4799 94.9298 70.7499 103.93C77.5499 106.56 85.9699 109.95 85.9299 118.62C85.8399 135.21 57.6199 132.27 47.5199 127.65C41.9399 125.1 38.3499 121.3 33.7799 117.45L0.0299406 127.43C-0.360059 127.95 3.74994 136.07 4.43994 137.25C34.0699 187.64 137.06 171.56 120.72 106.44C111.81 70.9198 73.8999 75.7899 50.0399 60.6999H50.0499Z" fill="#FF2E6D"/>
<path d="M491.84 55.18C473.51 43.29 446.36 44.53 430.81 60.49V5.54004L396.83 15.78V163.38H430.81V153.39C448.37 171.23 477.48 170.71 496.51 155.37C527.79 130.17 525.77 77.19 491.84 55.17V55.18ZM484.23 112.63C479.82 140.48 439.28 142.14 432.06 115.92C427.43 99.11 435.83 81.48 454.19 79.61C474.49 77.55 487.33 92.98 484.23 112.63Z" fill="#FF2E6D"/>
<path d="M591.99 47.51C581.65 48.33 571.95 53.21 564.75 60.49V5.54004L530.77 15.78V163.38H564.75V153.39C582.16 171.57 612.63 170.58 631.22 154.64C672.54 119.22 650.48 42.86 591.99 47.5V47.51ZM587.99 134.41C557.17 131.65 556.43 83.17 587.62 79.61C601.07 78.08 614.04 84.93 617.37 98.55C622.39 119.13 609.66 136.35 587.99 134.41Z" fill="#FF2E6D"/>
<path d="M346.85 60.4898C345.98 60.7098 345.85 60.1298 345.35 59.7398C336.65 53.0898 332 48.6598 320.05 47.5598C275.84 43.5098 250.05 86.5198 261.64 126.41C271.55 160.52 311.07 179.15 341.59 157.87L346.85 153.39V163.38H380.83L381.33 40.5098L346.85 50.7498V60.4898ZM346.22 113.05C341.47 141.36 299.24 142.02 293.61 113.96C290.31 97.5298 298.65 81.4098 316.27 79.6198C336.97 77.5198 349.56 93.1498 346.22 113.05Z" fill="#FF2E6D"/>
<path d="M174.43 56.2398L170.44 60.4898V44.0098L135.96 55.2498V163.39H170.44V95.7098C170.44 94.6198 172.08 90.1698 172.67 88.9498C180.96 71.8498 210.92 76.7398 210.92 96.7098V163.39H244.9V90.7198C244.91 53.4898 203.71 34.5198 174.43 56.2398Z" fill="#FF2E6D"/>
<path d="M791.13 82.9698V50.4998H768.14V19.0298L734.16 29.0198V50.4998H716.17V82.9698H734.16C734.88 98.1098 733.19 114.13 734.16 129.17C734.66 136.87 737.12 146.73 741.94 152.86C752.68 166.49 774.38 164.64 789.87 163.89L791.12 163.14V132.92H779.38C778.59 132.92 775.01 132.08 774.02 131.78C771.68 131.07 768.13 128.26 768.13 125.68V82.9698H791.12H791.13Z" fill="#FF2E6D"/>
<path d="M666.69 60.4902V163.88H699.92L700.67 163.13V51.2502L699.64 50.7002L666.69 60.4902Z" fill="#FF2E6D"/>
<path d="M680.57 0.189878C652.75 3.53988 660.82 48.1499 689.4 39.9799C712.27 33.4399 706.46 -2.93012 680.57 0.189878Z" fill="#FF2E6D"/>
</g>
</g>
<defs>
<clipPath id="clip0_607_4095">
<rect width="792" height="167" fill="white"/>
</clipPath>
</defs>
</svg>
