<svg width="218" height="119" viewBox="0 0 218 119" fill="none" xmlns="http://www.w3.org/2000/svg">
<path opacity="0.2" d="M41.2481 60.7388C38.125 60.7388 35.5724 60.1082 33.5905 58.8469C31.6085 57.5856 30.1971 55.7838 29.3562 53.4415C28.5154 51.0391 28.1851 48.1862 28.3652 44.8829C28.3652 44.5226 28.4553 44.2823 28.6355 44.1622C28.8157 44.0421 29.0259 43.982 29.2661 43.982H35.2121C35.8127 43.982 36.113 44.2823 36.113 44.8829C36.0529 47.4055 36.3832 49.4475 37.104 51.0091C37.8847 52.5106 39.3262 53.2613 41.4283 53.2613C43.5304 53.2613 45.0619 52.4505 46.0229 50.8289C46.9838 49.1472 47.4643 46.5646 47.4643 43.0811V39.4775C47.4643 37.2553 47.2541 35.4535 46.8337 34.0721C46.4133 32.6307 45.7226 31.5797 44.7616 30.919C43.8007 30.1983 42.5694 29.8379 41.0679 29.8379C39.4463 29.8379 37.7346 30.1382 35.9328 30.7388C34.1911 31.2794 32.4793 32.0001 30.7977 32.901C30.3772 33.1412 30.0169 33.1712 29.7166 32.9911C29.4763 32.8109 29.3562 32.5406 29.3562 32.1803L31.3382 2.18028C31.3382 1.51962 31.6385 1.18929 32.2391 1.18929H52.2391C52.8397 1.18929 53.14 1.51962 53.14 2.18028V7.76586C53.14 8.42652 52.8397 8.75685 52.2391 8.75685H38.3652L37.3742 24.1622C38.6355 23.6818 39.8067 23.3214 40.8877 23.0812C42.0289 22.8409 43.2301 22.7208 44.4913 22.7208C48.3352 22.7208 51.158 24.2223 52.9598 27.2253C54.8217 30.2283 55.7526 34.973 55.7526 41.4595C55.7526 47.7658 54.5814 52.5706 52.2391 55.8739C49.8967 59.1172 46.2331 60.7388 41.2481 60.7388ZM74.6279 60.7388C69.8831 60.7388 66.2795 59.2973 63.8171 56.4145C61.4147 53.4715 60.2135 49.2073 60.2135 43.6217V17.7659C60.2135 12.1202 61.4147 7.85595 63.8171 4.97307C66.2795 2.09019 69.8831 0.648753 74.6279 0.648753C79.3125 0.648753 82.8561 2.09019 85.2585 4.97307C87.7209 7.85595 88.9522 12.1202 88.9522 17.7659V43.6217C88.9522 49.2073 87.7209 53.4715 85.2585 56.4145C82.8561 59.2973 79.3125 60.7388 74.6279 60.7388ZM74.6279 53.1712C76.6699 53.1712 78.1714 52.3904 79.1324 50.8289C80.0933 49.2073 80.5738 46.7448 80.5738 43.4415V18.0361C80.5738 14.6728 80.0933 12.2103 79.1324 10.6487C78.1714 9.02712 76.6699 8.21631 74.6279 8.21631C72.5258 8.21631 70.9942 9.02712 70.0333 10.6487C69.0723 12.2103 68.5918 14.6728 68.5918 18.0361V43.4415C68.5918 46.7448 69.0723 49.2073 70.0333 50.8289C70.9942 52.3904 72.5258 53.1712 74.6279 53.1712ZM108.566 60.7388C103.822 60.7388 100.218 59.2973 97.7556 56.4145C95.3532 53.4715 94.152 49.2073 94.152 43.6217V17.7659C94.152 12.1202 95.3532 7.85595 97.7556 4.97307C100.218 2.09019 103.822 0.648753 108.566 0.648753C113.251 0.648753 116.795 2.09019 119.197 4.97307C121.66 7.85595 122.891 12.1202 122.891 17.7659V43.6217C122.891 49.2073 121.66 53.4715 119.197 56.4145C116.795 59.2973 113.251 60.7388 108.566 60.7388ZM108.566 53.1712C110.608 53.1712 112.11 52.3904 113.071 50.8289C114.032 49.2073 114.512 46.7448 114.512 43.4415V18.0361C114.512 14.6728 114.032 12.2103 113.071 10.6487C112.11 9.02712 110.608 8.21631 108.566 8.21631C106.464 8.21631 104.933 9.02712 103.972 10.6487C103.011 12.2103 102.53 14.6728 102.53 18.0361V43.4415C102.53 46.7448 103.011 49.2073 103.972 50.8289C104.933 52.3904 106.464 53.1712 108.566 53.1712ZM142.505 60.7388C137.76 60.7388 134.157 59.2973 131.694 56.4145C129.292 53.4715 128.091 49.2073 128.091 43.6217V17.7659C128.091 12.1202 129.292 7.85595 131.694 4.97307C134.157 2.09019 137.76 0.648753 142.505 0.648753C147.19 0.648753 150.733 2.09019 153.136 4.97307C155.598 7.85595 156.829 12.1202 156.829 17.7659V43.6217C156.829 49.2073 155.598 53.4715 153.136 56.4145C150.733 59.2973 147.19 60.7388 142.505 60.7388ZM142.505 53.1712C144.547 53.1712 146.049 52.3904 147.01 50.8289C147.971 49.2073 148.451 46.7448 148.451 43.4415V18.0361C148.451 14.6728 147.971 12.2103 147.01 10.6487C146.049 9.02712 144.547 8.21631 142.505 8.21631C140.403 8.21631 138.871 9.02712 137.91 10.6487C136.949 12.2103 136.469 14.6728 136.469 18.0361V43.4415C136.469 46.7448 136.949 49.2073 137.91 50.8289C138.871 52.3904 140.403 53.1712 142.505 53.1712ZM175.723 44.8829C175.122 44.8829 174.822 44.6127 174.822 44.0721V36.1442H166.804C166.324 36.1442 166.083 35.8739 166.083 35.3334V30.919C166.083 30.3184 166.324 30.0181 166.804 30.0181H174.822V22.0001C174.822 21.5196 175.122 21.2794 175.723 21.2794H180.047C180.648 21.2794 180.948 21.5196 180.948 22.0001V30.0181H188.876C189.417 30.0181 189.687 30.3184 189.687 30.919V35.3334C189.687 35.8739 189.417 36.1442 188.876 36.1442H180.948V44.0721C180.948 44.6127 180.648 44.8829 180.047 44.8829H175.723Z" fill="#FF2E6D"/>
<path d="M19.3338 118.919C12.6886 118.919 7.80472 117.077 4.68226 113.394C1.63985 109.712 0.118654 103.907 0.118654 95.9807V61.8738C0.118654 54.0276 1.71992 48.223 4.92245 44.46C8.12497 40.6971 12.9288 38.8156 19.3338 38.8156C24.7781 38.8156 29.0215 40.2968 32.0639 43.2591C35.1063 46.1414 36.6275 50.3447 36.6275 55.869C36.6275 56.6697 36.2272 57.07 35.4265 57.07H27.5003C26.6996 57.07 26.2993 56.6697 26.2993 55.869C26.2993 53.6273 25.6988 51.9059 24.4979 50.705C23.2969 49.424 21.6156 48.7835 19.4539 48.7835C16.4916 48.7835 14.3699 49.7442 13.0889 51.6657C11.8879 53.5072 11.2875 56.6697 11.2875 61.1532V96.1008C11.2875 100.744 11.8479 104.067 12.9688 106.069C14.1697 107.99 16.2114 108.951 19.0936 108.951C22.056 108.951 24.1376 107.75 25.3386 105.348C26.6196 102.866 27.2601 98.7829 27.2601 93.0984V90.9367C27.2601 86.1329 26.7797 82.7703 25.8189 80.8488C24.8582 78.9272 23.0968 77.9665 20.5348 77.9665C18.9335 77.9665 17.2522 78.4068 15.4908 79.2875C13.7294 80.0882 11.8879 81.3692 9.96643 83.1306V74.1235C12.4484 72.1219 14.8903 70.6807 17.2922 69.8C19.6941 68.9193 22.056 68.479 24.3778 68.479C29.1816 68.479 32.7044 70.3204 34.9461 74.0034C37.268 77.6062 38.4289 83.4508 38.4289 91.5372C38.4289 100.664 36.8276 107.51 33.6251 112.073C30.5026 116.637 25.7389 118.919 19.3338 118.919ZM64.1067 118.919C57.7817 118.919 52.9779 116.997 49.6953 113.154C46.4928 109.231 44.8915 103.547 44.8915 96.1008V61.6336C44.8915 54.1077 46.4928 48.4232 49.6953 44.5801C52.9779 40.7371 57.7817 38.8156 64.1067 38.8156C70.3516 38.8156 75.0753 40.7371 78.2778 44.5801C81.5604 48.4232 83.2017 54.1077 83.2017 61.6336V96.1008C83.2017 103.547 81.5604 109.231 78.2778 113.154C75.0753 116.997 70.3516 118.919 64.1067 118.919ZM64.1067 108.831C66.8288 108.831 68.8304 107.79 70.1114 105.708C71.3924 103.547 72.0329 100.264 72.0329 95.8606V61.9939C72.0329 57.5103 71.3924 54.2277 70.1114 52.1461C68.8304 49.9844 66.8288 48.9035 64.1067 48.9035C61.3044 48.9035 59.2628 49.9844 57.9818 52.1461C56.7008 54.2277 56.0603 57.5103 56.0603 61.9939V95.8606C56.0603 100.264 56.7008 103.547 57.9818 105.708C59.2628 107.79 61.3044 108.831 64.1067 108.831ZM109.349 118.919C103.024 118.919 98.2198 116.997 94.9372 113.154C91.7347 109.231 90.1334 103.547 90.1334 96.1008V61.6336C90.1334 54.1077 91.7347 48.4232 94.9372 44.5801C98.2198 40.7371 103.024 38.8156 109.349 38.8156C115.594 38.8156 120.317 40.7371 123.52 44.5801C126.802 48.4232 128.444 54.1077 128.444 61.6336V96.1008C128.444 103.547 126.802 109.231 123.52 113.154C120.317 116.997 115.594 118.919 109.349 118.919ZM109.349 108.831C112.071 108.831 114.072 107.79 115.353 105.708C116.634 103.547 117.275 100.264 117.275 95.8606V61.9939C117.275 57.5103 116.634 54.2277 115.353 52.1461C114.072 49.9844 112.071 48.9035 109.349 48.9035C106.546 48.9035 104.505 49.9844 103.224 52.1461C101.943 54.2277 101.302 57.5103 101.302 61.9939V95.8606C101.302 100.264 101.943 103.547 103.224 105.708C104.505 107.79 106.546 108.831 109.349 108.831ZM154.591 118.919C148.266 118.919 143.462 116.997 140.179 113.154C136.977 109.231 135.375 103.547 135.375 96.1008V61.6336C135.375 54.1077 136.977 48.4232 140.179 44.5801C143.462 40.7371 148.266 38.8156 154.591 38.8156C160.836 38.8156 165.559 40.7371 168.762 44.5801C172.044 48.4232 173.686 54.1077 173.686 61.6336V96.1008C173.686 103.547 172.044 109.231 168.762 113.154C165.559 116.997 160.836 118.919 154.591 118.919ZM154.591 108.831C157.313 108.831 159.314 107.79 160.595 105.708C161.876 103.547 162.517 100.264 162.517 95.8606V61.9939C162.517 57.5103 161.876 54.2277 160.595 52.1461C159.314 49.9844 157.313 48.9035 154.591 48.9035C151.788 48.9035 149.747 49.9844 148.466 52.1461C147.185 54.2277 146.544 57.5103 146.544 61.9939V95.8606C146.544 100.264 147.185 103.547 148.466 105.708C149.747 107.79 151.788 108.831 154.591 108.831ZM198.872 97.7821C198.071 97.7821 197.671 97.4218 197.671 96.7013V86.1329H186.982C186.342 86.1329 186.022 85.7726 186.022 85.0521V79.1674C186.022 78.3668 186.342 77.9665 186.982 77.9665H197.671V67.278C197.671 66.6375 198.071 66.3173 198.872 66.3173H204.636C205.437 66.3173 205.837 66.6375 205.837 67.278V77.9665H216.406C217.126 77.9665 217.486 78.3668 217.486 79.1674V85.0521C217.486 85.7726 217.126 86.1329 216.406 86.1329H205.837V96.7013C205.837 97.4218 205.437 97.7821 204.636 97.7821H198.872Z" fill="#FF2E6D"/>
</svg>
